<svg xmlns="http://www.w3.org/2000/svg" viewBox="0 0 500 500"><defs><clipPath id="a"><path d="M250.43 155.56c-46.89.66-85 39.11-85.34 86a86.4 86.4 0 0 0 32.26 68 23.7 23.7 0 0 1 7.56 11.14l4 12.37h85.48l4.09-12.62a23 23 0 0 1 7.38-10.8 86.57 86.57 0 0 0-55.45-154.06Z" style="fill:#fff;stroke:#263238;stroke-linecap:round;stroke-linejoin:round"/></clipPath><clipPath id="b"><path d="M284.06 398.88h-64.78l-7.71-54.9h80.2z" style="fill:#999;stroke:#263238;stroke-linecap:round;stroke-linejoin:round"/></clipPath><clipPath id="c"><path d="M214.68 371.21a2.31 2.31 0 0 1-.17-4.62l74-5.47a2.31 2.31 0 1 1 .34 4.61l-74 5.47Z" style="fill:#bfbfbf;stroke:#263238;stroke-linecap:round;stroke-linejoin:round"/></clipPath><clipPath id="d"><path d="M216 380.13a2.31 2.31 0 0 1-.17-4.62l71.44-5.29a2.31 2.31 0 0 1 .34 4.61l-71.44 5.29Z" style="fill:#bfbfbf;stroke:#263238;stroke-linecap:round;stroke-linejoin:round"/></clipPath><clipPath id="e"><path d="M217.21 389.05a2.31 2.31 0 0 1-.16-4.62l68.9-5.09a2.31 2.31 0 0 1 .34 4.61l-68.9 5.1Z" style="fill:#bfbfbf;stroke:#263238;stroke-linecap:round;stroke-linejoin:round"/></clipPath><clipPath id="f"><path d="M218.48 398a2.31 2.31 0 0 1-.17-4.62l66.37-4.91a2.31 2.31 0 1 1 .34 4.61L218.65 398Z" style="fill:#bfbfbf;stroke:#263238;stroke-linecap:round;stroke-linejoin:round"/></clipPath><clipPath id="g"><path d="M300.71 326.66 298.17 355l-5.94 4.48h-81.12l-5.95-4.48-2.53-28.34 1.76-4.49h94.55z" style="fill:#9579e5;stroke:#263238;stroke-linecap:round;stroke-linejoin:round"/></clipPath></defs><path d="M453 379.17c-29.17 45.62-91.05 77.11-199.17 77.11-100.52 0-161.5-27.22-193.59-67.71C-33 271 117.45 41.46 250.54 41.46c129.63 0 279.15 217.74 202.46 337.71" style="fill:#9579e5"/><path d="M453 379.17c-29.17 45.62-91.05 77.11-199.17 77.11-100.52 0-161.5-27.22-193.59-67.71C-33 271 117.45 41.46 250.54 41.46c129.63 0 279.15 217.74 202.46 337.71" style="fill:#fff;opacity:.7000000000000001"/><path d="M453 378.44v.73c-29.17 45.62-91.05 77.11-199.17 77.11-100.52 0-161.5-27.22-193.59-67.71v-17h11.6v11.08h6.85v12.66h13.79v-23.73h8.75v-18.73h15.13v-25.58l2.57-2.56v28.15h5.22v30.33h6.09V418h8.06v-24.79l13-13V355.5l3.62 3.61v35.15l4.33 4.34v12h15.25v-13.7H169v-3.69h5.51v-5.28h14.43v-16.57h3.7v16.57H199v35.87h17.21v-13.18l10-10h8.09v-18.49h4.7v18.46h5.78l10.07 10.08v13.13h13.25v-24.26h12.2l14-14v-19.3h3.95v20.61l12.63 12.63h17.09v14.27h10.35v-30.04h13.13V348h-2.44v-13.81h2.44v-9.48h3.87v32.13l5.55 5.54v22.39h13.45v5.8h15V365h6.85v-26h2.27v26h9.44L419 376.25v9.57h9.42v-15.29h15.28v7.91Z" style="fill:#9579e5;opacity:.4"/><path d="M105.12 356.07h6.23v6.23h-6.23zm7.85 0h6.23v6.23h-6.23zm-7.85 7.96h6.23v6.23h-6.23zm7.85 0h6.23v6.23h-6.23zm-7.85 7.95h6.23v6.23h-6.23zm7.85 0h6.23v6.23h-6.23zm-7.85 7.96h6.23v6.23h-6.23zm7.85 0h6.23v6.23h-6.23zm-7.85 7.96h6.23v6.23h-6.23zm7.85 0h6.23v6.23h-6.23zm-7.85 7.96h6.23v6.23h-6.23zm0 7.96h6.23v6.23h-6.23zm7.85 0h6.23v6.23h-6.23zm-7.85 7.96h6.23v6.23h-6.23zm7.85 0h6.23v6.23h-6.23zm-7.85 7.96h6.23v6.23h-6.23zm7.85 0h6.23v6.23h-6.23zm7.84-31.84h6.23v6.23h-6.23zm0 7.96h6.23v6.23h-6.23zm0 7.96h6.23v6.23h-6.23zm0 15.92h6.23v6.23h-6.23zm-23.54-39.8h6.23v6.23h-6.23zm0 7.96h6.23v6.23h-6.23zm0 7.96h6.23v6.23h-6.23zm0 7.96h6.23v6.23h-6.23zm50.54-17.84h4.99v6.23h-4.99zm0 7.87h4.99v6.23h-4.99zm0 7.86h4.99v6.23h-4.99zm0 7.86h4.99v6.23h-4.99zm0 7.86h4.99v6.23h-4.99zm0 7.86h4.99v6.23h-4.99zm-6.54-31.4h4.99v6.23h-4.99zm0 7.86h4.99v6.23h-4.99zm0 7.85h4.99v6.23h-4.99zm0 7.86h4.99v6.23h-4.99zm0 7.85h4.99v6.23h-4.99zm0 7.86h4.99v6.23h-4.99zm-71.26-46.32H75v6.23h-4.99zm0 7.96H75v6.23h-4.99zm0 7.96H75V409h-4.99zm0 15.91H75v6.23h-4.99zm0 7.96H75v6.23h-4.99zm-6.54-39.79h4.99v6.23h-4.99zm0 7.96h4.99v6.23h-4.99zm0 7.96h4.99V409h-4.99zm0 7.95h4.99v6.23h-4.99zm0 7.96h4.99v6.23h-4.99zm120.44-27.74h5.44v6.23h-5.44zm6.85 0h5.44v6.23h-5.44zm-6.85 7.85h5.44v6.23h-5.44zm6.85 0h5.44v6.23h-5.44zm-6.85 7.85h5.44v6.23h-5.44zm6.85 0h5.44v6.23h-5.44zm-6.85 7.85h5.44v6.23h-5.44zm6.85 0h5.44v6.23h-5.44zm-6.85 7.85h5.44v6.23h-5.44zm6.85 0h5.44v6.23h-5.44zm-6.85 7.85h5.44v6.23h-5.44zm6.85 0h5.44v6.23h-5.44zm-13.69-39.25h5.44v6.23h-5.44zm0 7.85h5.44v6.23h-5.44zm0 7.85h5.44v6.23h-5.44zm0 7.85h5.44v6.23h-5.44zm51.72-3.79h6.23v6.23h-6.23zm7.85 0h6.23v6.23h-6.23zm-7.85 7.81h6.23v6.23h-6.23zm7.85 0h6.23v6.23h-6.23zm-7.85 7.81h6.23v6.23h-6.23zm7.85 0h6.23v6.23h-6.23zm-7.85 7.8h6.23v6.23h-6.23zm7.85 0h6.23v6.23h-6.23zm-7.85 7.81h6.23v6.23h-6.23zm7.85 0h6.23v6.23h-6.23zm7.84-31.23h6.23v6.23h-6.23zm0 7.81h6.23v6.23h-6.23zm0 15.61h6.23v6.23h-6.23zm0 7.81h6.23v6.23h-6.23zm-23.53-31.23h6.23v6.23h-6.23zm0 7.81h6.23v6.23h-6.23zm0 7.81h6.23v6.23h-6.23zm128.63-38.42h6.23v6.23h-6.23zm7.85 0h6.23v6.23h-6.23zm-7.85 7.98h6.23v6.23h-6.23zm7.85 0h6.23v6.23h-6.23zm-7.85 7.97h6.23v6.23h-6.23zm7.85 0h6.23v6.23h-6.23zm-7.85 7.98h6.23v6.23h-6.23zm7.85 0h6.23v6.23h-6.23zm-7.85 7.98h6.23v6.23h-6.23zm7.85 0h6.23v6.23h-6.23zm7.85-31.91h6.23v6.23h-6.23zm0 7.98h6.23v6.23h-6.23zm0 23.93h6.23v6.23h-6.23zm27.82-42.67h6.23v6.23h-6.23zm7.85 0h6.23v6.23h-6.23zm-7.85 7.98h6.23v6.23h-6.23zm7.85 0h6.23v6.23h-6.23zm-7.85 7.97h6.23v6.23h-6.23zm7.85 0h6.23v6.23h-6.23zm-7.85 7.98h6.23v6.23h-6.23zm7.85 0h6.23v6.23h-6.23zm-7.85 7.98h6.23v6.23h-6.23zm7.85 0h6.23v6.23h-6.23zm7.84-31.91h6.23v6.23h-6.23zm0 7.98h6.23v6.23h-6.23zm0 7.97h6.23v6.23h-6.23zm0 7.98h6.23v6.23h-6.23zm0 7.98h6.23v6.23h-6.23zm22.27-27.8h5.23v6.23h-5.23zm6.85 0h5.23v6.23h-5.23zm-6.85 7.96h5.23v6.23h-5.23zm6.85 0h5.23v6.23h-5.23zm-6.85 7.96h5.23v6.23h-5.23zm6.85 0h5.23v6.23h-5.23zm0 7.96h5.23v6.23h-5.23zm-6.85 7.96h5.23v6.23h-5.23zm13.7-31.84h5.23v6.23h-5.23zm0 23.88h5.23v6.23h-5.23zM341.74 387.9h6.23v6.23h-6.23zm0 7.98h6.23v6.23h-6.23zm0 7.97h6.23v6.23h-6.23zm0 7.98h6.23v6.23h-6.23zm-39.04-.11h6.23v6.23h-6.23zm-7.64 0h6.23v6.23h-6.23zm-7.63 0h6.23v6.23h-6.23zm-7.64 0h6.23v6.23h-6.23zm-7.64 0h6.23v6.23h-6.23zm38.19 0h6.23v6.23h-6.23zm7.64 0h6.23v6.23h-6.23zm-15.28 7.94h6.23v6.23h-6.23zm-7.64 0h6.23v6.23h-6.23zm-7.63 0h6.23v6.23h-6.23zm-7.64 0h6.23v6.23h-6.23zm-7.64 0h6.23v6.23h-6.23zm38.19 0h6.23v6.23h-6.23zm7.64 0h6.23v6.23h-6.23zm-15.28 7.95h6.23v6.23h-6.23zm-7.64 0h6.23v6.23h-6.23zm-7.63 0h6.23v6.23h-6.23zm-7.64 0h6.23v6.23h-6.23zm30.55 0h6.23v6.23h-6.23zm-7.64 7.94h6.23v6.23h-6.23zm-7.64 0h6.23v6.23h-6.23zm-15.27 0h6.23v6.23h-6.23zm30.55 0h6.23v6.23h-6.23zm-7.64 7.94h6.23v6.23h-6.23zm-7.64 0h6.23v6.23h-6.23zm-7.63 0h6.23v6.23h-6.23zm-7.64 0h6.23v6.23h-6.23zm-7.64 0h6.23v6.23h-6.23zm38.19 0h6.23v6.23h-6.23zm7.64 0h6.23v6.23h-6.23zm-15.28 7.94h6.23v6.23h-6.23zm-15.27 0h6.23v6.23h-6.23zm-7.64 0h6.23v6.23h-6.23zm-7.64 0h6.23v6.23h-6.23zm30.55 7.95h6.23v6.23h-6.23zm-22.91 0h6.23v6.23h-6.23zm38.19 0h6.23v6.23h-6.23zm-15.28-55.6h6.23v6.23h-6.23zm-7.64 0h6.23v6.23h-6.23zm-7.63 0h6.23v6.23h-6.23zm-7.64 0h6.23v6.23h-6.23zm-7.64 0h6.23v6.23h-6.23zm38.19 0h6.23v6.23h-6.23zm7.64 0h6.23v6.23h-6.23zm82.97 13.24h6.23v6.23h-6.23zm0 7.98h6.23v6.23h-6.23zm-7.85 7.97h6.23v6.23h-6.23zm15.69-15.95h6.23v6.23h-6.23zm0 7.98h6.23v6.23h-6.23zm-51.36 2.78h6.23v6.23h-6.23zm-7.85 7.98h6.23v6.23h-6.23zm7.85 0h6.23v6.23h-6.23zm-7.85 7.98h6.23v6.23h-6.23zm7.85 0h6.23v6.23h-6.23zm7.85-15.96h6.23v6.23h-6.23zm0 7.98h6.23v6.23h-6.23zm-23.54-7.98h6.23v6.23h-6.23zm-112.95 21.95h6.23v6.23h-6.23zm7.85 0h6.23v6.23h-6.23zm-7.85 7.81h6.23v6.23h-6.23zm-7.84-7.81h6.23v6.23h-6.23zm-37.04-11.69h5.44v6.23h-5.44zm6.85 0h5.44v6.23h-5.44zm0 7.85h5.44v6.23h-5.44zm-13.69-7.85h5.44v6.23h-5.44zm0 15.7h5.44v6.23h-5.44zm-29.26-4.87h4.99v6.23h-4.99zm0 7.87h4.99v6.23h-4.99zm-6.54-15.71h4.99v6.23h-4.99zm0 7.85h4.99v6.23h-4.99zm-28.3-21.1h6.23v6.23h-6.23zm-7.85 7.96h6.23v6.23h-6.23z" style="fill:#fff"/><path d="M253.84 84.08c0-1.23 0-2.46-.05-3.69m0 40.47q.17-11.33.14-22.66m-.14 42.74v-6.4m51.5-40.46c1-2.21 2-4.41 3.09-6.58m-17.49 40.8c4.11-8.9 7.57-18.07 11.34-27.11m-19.47 46.08q2.65-6.2 5.3-12.37m-12.62 6.04 10.68-37.95m-72.01 7.36c3.64 11.36 6.73 22.93 10.41 34.11M207.14 87.5q2.45 8 4.88 16m3.68 40.44 1.5 3.33m-11.89-26.41 7.58 16.83m-50.25 23.8c3.86 4.46 7.69 8.95 11.42 13.53M145.4 141.1c4 5.07 8.27 10 12.51 14.92m-20.45-24.3 3 3.59m6.91 25.48 20.43 19.72m-18.26 45.06 6.22 1.59m-50.71-12.96 38.19 9.8M93.7 211.3l4.13 1.06m43.4.3 14.53 6.57m-31.03-14.02 10 4.52m243.43-73.6 2.49-2.06m-14.09 11.68 5.8-4.81m-29.67 24.59 18.1-15m-32.9 27.26 9.32-7.72m-7.18-38.35-20.13 27.75m99.92 36.08 4.37-1.32m-45.05 13.64c11.39-3.33 22.82-6.53 34.07-10.31m-54.28 16.49c4.36-1.43 8.75-2.78 13.15-4.1m-10.71 15.08 37.2-4.86M405 289.6l5.54 1.78M350.15 272c16.37 4.63 31.78 10.79 48.17 15.44M375.59 269l21.83 3m-46.05-6.4 16.83 2.4m-1.13 89.51 2.81 3.51m-41.99-52.5c11.65 14.37 23.21 29 35 43.73m-17.78-35.92q5.07 4.94 10.13 9.88M332.47 304l8.42 8.21m-189.77 45.84-2.22 3.06m15.92-21.82c-3.14 4.41-6.32 8.8-9.59 13.12M184 312.93c-5.19 6.67-10.09 13.57-15 20.47m-2.92-15.1-11.39 10.24m23.17-20.83-6.73 6.05m-51.75-19.53-13.17 6.57M159 274.5c-10.58 5.23-22.14 10.62-33.3 16.6m30.06-32.61-28.82 5.03m211.3-69.29 17-10.37M182.74 143l10.37 16.47m125.63 174.39 6.41 13.64m-11.89-25.33c.89 1.9 1.79 3.81 2.68 5.72m57.14-27.84 3.6 2.12m-29.94-17.67 20.2 11.92m29.11-46.85h9.6m-51.38 0c11.48.1 23 .1 34.93 0M110 250l-17.51.29m51.63-.8c-9.25.19-18.5.23-27.76.35m38.33-.63-3.74.12M138 178.12l-14.39-9.23m39.52 25.34-18.87-12.09" style="fill:none;stroke:#263238;stroke-linecap:round;stroke-linejoin:round"/><path d="M250.43 155.56c-46.89.66-85 39.11-85.34 86a86.4 86.4 0 0 0 32.26 68 23.7 23.7 0 0 1 7.56 11.14l4 12.37h85.48l4.09-12.62a23 23 0 0 1 7.38-10.8 86.57 86.57 0 0 0-55.45-154.06Z" style="fill:#fff"/><g style="clip-path:url(#a)"><path d="M230.6 325.91c.05 2.17 0 3.4 0 3.4m-2.1-29.89c1.07 7.86 1.61 15.05 1.88 20.41m-9.59-64.36h-6.08c6.29 9.53 10.09 22.66 12.39 35.22m5.79-37.71-.71 2.49h-9.34m16.73 4.58-.81 2.74-4.67-14.03-.74 2.59m15.87 5.39-1.85 6.05-4.49-14.03-2.41 8.22m21.86-1.83-1.87-6.39-4.49 14.03-4.3-14.03-1.26 4.11m23.51 2.6h-2.77l-1.9-6.71-4.68 14.03-1.47-5.03m14.45 26.45c2.36-10.47 5.86-20.85 11.07-28.74h-11.8M275 298.12c.48-3.37 1.07-6.86 1.77-10.36m-3.5 26.86c.25-3.52.61-7.49 1.12-11.73m-1.54 19.28c0-.92.09-1.92.14-3m-.29 10.14s0-1.64.06-4.47" style="fill:none;stroke:#263238;stroke-linecap:round;stroke-linejoin:round"/><path d="M250.43 155.56c-46.89.66-85 39.11-85.34 86a86.4 86.4 0 0 0 32.26 68 23.7 23.7 0 0 1 7.56 11.14l4 12.37h85.48l4.09-12.62a23 23 0 0 1 7.38-10.8 86.57 86.57 0 0 0-55.45-154.06Zm1.24 141.7A66.28 66.28 0 1 1 317.94 231a66.27 66.27 0 0 1-66.27 66.26" style="fill:#9579e5;opacity:.2"/></g><path d="M250.43 155.56c-46.89.66-85 39.11-85.34 86a86.4 86.4 0 0 0 32.26 68 23.7 23.7 0 0 1 7.56 11.14l4 12.37h85.48l4.09-12.62a23 23 0 0 1 7.38-10.8 86.57 86.57 0 0 0-55.45-154.06Z" style="fill:none;stroke:#263238;stroke-linecap:round;stroke-linejoin:round"/><path d="M261.68 416.27h-20a2.8 2.8 0 0 1-2.44-1.42l-3-5.28-11.57-6.71h54.13l-11.56 6.71-3 5.28a2.83 2.83 0 0 1-2.56 1.42" style="fill:#263238;stroke:#263238;stroke-linecap:round;stroke-linejoin:round"/><path d="M284.06 398.88h-64.78a14.09 14.09 0 0 0 12.69 8h39.39a14.11 14.11 0 0 0 12.7-8" style="fill:#757575;stroke:#263238;stroke-linecap:round;stroke-linejoin:round"/><path d="M284.06 398.88h-64.78l-7.71-54.9h80.2z" style="fill:#999"/><g style="clip-path:url(#b)"><path d="m222.6 380.82.71 6.29 57.21-4.43.73-6.52zM244.15 397H274a5.48 5.48 0 0 0 4.74-2.75Zm-20.54-7.22.26 2.35a5.47 5.47 0 0 0 2 3.62l53.67-4.16.71-6.31Zm58.94-25.15.22-1.98h-62.2l.75 6.73zm-60.93 7.42.69 6.09 59.24-4.59.7-6.31z" style="fill:#fff;opacity:.4"/></g><path d="M284.06 398.88h-64.78l-7.71-54.9h80.2z" style="fill:none;stroke:#263238;stroke-linecap:round;stroke-linejoin:round"/><path d="M214.68 371.21a2.31 2.31 0 0 1-.17-4.62l74-5.47a2.31 2.31 0 1 1 .34 4.61l-74 5.47Z" style="fill:#bfbfbf"/><g style="clip-path:url(#c)"><g style="opacity:.4"><path d="M290.69 362.36a2.27 2.27 0 0 1-1.87 1.23l-74 5.47h-.17a1.38 1.38 0 1 1-.17-2.48l74-5.47a2.3 2.3 0 0 1 2.21 1.25" style="fill:#fff"/></g></g><path d="M214.68 371.21a2.31 2.31 0 0 1-.17-4.62l74-5.47a2.31 2.31 0 1 1 .34 4.61l-74 5.47Z" style="fill:none;stroke:#263238;stroke-linecap:round;stroke-linejoin:round"/><path d="M216 380.13a2.31 2.31 0 0 1-.17-4.62l71.44-5.29a2.31 2.31 0 0 1 .34 4.61l-71.44 5.29Z" style="fill:#bfbfbf"/><g style="clip-path:url(#d)"><g style="opacity:.4"><path d="M289.43 371.46a2.27 2.27 0 0 1-1.87 1.23L216.12 378H216a1.38 1.38 0 1 1-.17-2.48l71.44-5.29a2.33 2.33 0 0 1 2.16 1.23" style="fill:#fff"/></g></g><path d="M216 380.13a2.31 2.31 0 0 1-.17-4.62l71.44-5.29a2.31 2.31 0 0 1 .34 4.61l-71.44 5.29Z" style="fill:none;stroke:#263238;stroke-linecap:round;stroke-linejoin:round"/><path d="M217.21 389.05a2.31 2.31 0 0 1-.16-4.62l68.9-5.09a2.31 2.31 0 0 1 .34 4.61l-68.9 5.1Z" style="fill:#bfbfbf"/><g style="clip-path:url(#e)"><g style="opacity:.4"><path d="M288.16 380.58a2.24 2.24 0 0 1-1.87 1.23l-68.9 5.1h-.18a1.38 1.38 0 1 1-.17-2.49l68.9-5.09a2.31 2.31 0 0 1 2.22 1.25" style="fill:#fff"/></g></g><path d="M217.21 389.05a2.31 2.31 0 0 1-.16-4.62l68.9-5.09a2.31 2.31 0 0 1 .34 4.61l-68.9 5.1Z" style="fill:none;stroke:#263238;stroke-linecap:round;stroke-linejoin:round"/><path d="M218.48 398a2.31 2.31 0 0 1-.17-4.62l66.37-4.91a2.31 2.31 0 1 1 .34 4.61L218.65 398Z" style="fill:#bfbfbf"/><g style="clip-path:url(#f)"><g style="opacity:.4"><path d="M286.9 389.68a2.29 2.29 0 0 1-1.87 1.24l-66.38 4.91h-.17a1.38 1.38 0 1 1-.17-2.48l66.37-4.91a2.32 2.32 0 0 1 2.22 1.24" style="fill:#fff"/></g></g><path d="M218.48 398a2.31 2.31 0 0 1-.17-4.62l66.37-4.91a2.31 2.31 0 1 1 .34 4.61L218.65 398Z" style="fill:none;stroke:#263238;stroke-linecap:round;stroke-linejoin:round"/><path d="M300.71 326.66 298.17 355l-5.94 4.48h-81.12l-5.95-4.48-2.53-28.34 1.76-4.49h94.55z" style="fill:#9579e5"/><g style="clip-path:url(#g)"><path d="m298.17 355-5.94 4.48h-81.12l-5.95-4.48z" style="fill-opacity:.7000000000000001;opacity:.2"/><path d="M300.71 326.66h-98.08l1.76-4.49h94.55z" style="fill:#fff;opacity:.4"/></g><path d="M300.71 326.66 298.17 355l-5.94 4.48h-81.12l-5.95-4.48-2.53-28.34 1.76-4.49h94.55zm-98.08 0h36.32m5.7 0h9.14m6.51 0h2.03m38.38 0h-8.94m6.4 28.34h-35.84m-5.89 0h-11.79m-9.15 0h-2.44m-27.9 0h9.74" style="fill:none;stroke:#263238;stroke-linecap:round;stroke-linejoin:round"/><path d="M230.83 400.21c3.37 3.1 11.43 5.29 20.84 5.29s17.46-2.19 20.84-5.29Z" style="fill:#fff;opacity:.4"/><path d="M256 415h-8.7a1.43 1.43 0 0 1-1.35-1l-1.22-3.75h13.87l-1.22 3.75a1.42 1.42 0 0 1-1.38 1m-11.27-6.2h13.87l1.55-1.18h-16.96z" style="fill:#fff;opacity:.2"/></svg>