<svg xmlns="http://www.w3.org/2000/svg" xml:space="preserve" width="800" height="800" viewBox="0 0 512.853 512.853"><path d="M27.16 144.493h82.773L127 178.627l14.507-34.133c11.093 0 19.627-9.387 19.627-20.48V28.44c0-11.093-8.533-20.48-19.627-20.48H27.16c-11.093 0-19.627 9.387-19.627 20.48v94.72c0 11.947 8.534 21.333 19.627 21.333" style="fill:#50b160" transform="translate(1 1)"/><path d="M340.333 212.76c0 46.933-38.4 85.333-85.333 85.333s-85.333-38.4-85.333-85.333 38.4-85.333 85.333-85.333 85.333 38.4 85.333 85.333" style="fill:#fff44f" transform="translate(1 1)"/><path d="M255 127.427c-4.267 0-8.533.853-12.8.853 40.96 6.827 72.533 41.813 72.533 84.48s-31.573 78.507-72.533 84.48c4.267.853 8.533.853 12.8.853 46.933 0 85.333-38.4 85.333-85.333s-38.4-85.333-85.333-85.333" style="fill:#ffa474" transform="translate(1 1)"/><path d="M255 127.427c4.267 0 8.533.853 12.8.853-40.96 6.827-72.533 41.813-72.533 84.48s31.573 78.507 72.533 84.48c-4.267 0-8.533.853-12.8.853-46.933 0-85.333-38.4-85.333-85.333s38.4-85.333 85.333-85.333" style="fill:#f5fffa" transform="translate(1 1)"/><path d="M306.2 286.147c-15.36 7.68-33.28 11.947-51.2 11.947s-35.84-4.267-51.2-11.947v54.613h102.4zM289.133 383.427h-68.266L203.8 340.76h102.4z" style="fill:#fdcc00" transform="translate(1 1)"/><path d="M27.16 468.76h82.773L127 502.893l14.507-34.133c11.093 0 19.627-9.387 19.627-20.48v-95.573c0-11.093-8.533-20.48-19.627-20.48H27.16c-11.093 0-19.627 9.387-19.627 20.48v95.573c0 11.093 8.534 20.48 19.627 20.48M474.307 144.493h-82.773l-17.067 34.133-14.507-34.133c-11.093 0-19.627-9.387-19.627-20.48V28.44c0-11.093 8.533-20.48 19.627-20.48h115.2c10.24 0 18.773 9.387 18.773 20.48v94.72c0 11.947-8.533 21.333-19.626 21.333M482.84 468.76h-82.773L383 502.893l-14.507-34.133c-11.093 0-19.627-9.387-19.627-20.48v-95.573c0-11.093 8.533-20.48 19.627-20.48h115.2c11.093 0 19.627 9.387 19.627 20.48v95.573c-.853 11.093-9.387 20.48-20.48 20.48" style="fill:#50b160" transform="translate(1 1)"/><path d="M474.307 7.96h-25.6c11.093 0 19.627 9.387 19.627 20.48v94.72c0 11.093-8.533 20.48-19.627 20.48h25.6c11.093 0 19.627-9.387 19.627-20.48V28.44c-.001-11.093-8.534-20.48-19.627-20.48M482.84 332.227h-25.6c11.093 0 19.627 9.387 19.627 20.48v95.573c0 11.093-8.533 20.48-19.627 20.48h25.6c11.093 0 19.627-9.387 19.627-20.48v-95.573c0-11.094-8.534-20.48-19.627-20.48" style="fill:#3ea04b" transform="translate(1 1)"/><path d="M27.16 7.96h25.6c-11.093 0-19.627 9.387-19.627 20.48v94.72c0 11.947 8.533 21.333 19.627 21.333h-25.6c-11.093 0-19.627-9.387-19.627-20.48V28.44c0-11.093 8.534-20.48 19.627-20.48M27.16 332.227h25.6c-11.093 0-19.627 9.387-19.627 20.48v95.573c0 11.093 8.533 20.48 19.627 20.48h-25.6c-11.093 0-19.627-9.387-19.627-20.48v-95.573c0-11.094 8.534-20.48 19.627-20.48" style="fill:#f5fffa" transform="translate(1 1)"/><path d="M256 307.627c-52.053 0-93.867-41.813-93.867-93.867s41.813-93.867 93.867-93.867 93.867 41.813 93.867 93.867-41.814 93.867-93.867 93.867m0-170.667c-42.667 0-76.8 34.133-76.8 76.8s34.133 76.8 76.8 76.8 76.8-34.133 76.8-76.8-34.133-76.8-76.8-76.8"/><path d="M307.2 350.293H204.8c-5.12 0-8.533-3.413-8.533-8.533v-54.613c0-2.56 1.707-5.973 4.267-6.827 2.56-1.707 5.973-1.707 8.533-.853 29.867 14.507 64.853 14.507 94.72 0 2.56-.853 5.973-.853 8.533.853s4.267 4.267 4.267 6.827v54.613c-.854 5.12-4.267 8.533-9.387 8.533m-93.867-17.066h85.333v-33.28c-27.307 10.24-58.027 10.24-85.333 0z"/><path d="M290.133 392.96h-68.267c-3.413 0-6.827-1.707-7.68-5.12l-17.067-42.667c-.853-2.56-.853-5.973.853-7.68 1.707-1.707 4.267-4.267 6.827-4.267h102.4c2.56 0 5.12 1.707 6.827 3.413 1.707 2.56 1.707 5.12.853 7.68l-17.067 42.667c-.852 4.267-4.265 5.974-7.679 5.974m-62.293-17.067h56.32l10.24-25.6h-76.8zM256 307.627c-5.12 0-8.533-3.413-8.533-8.533V179.627c0-5.12 3.413-8.533 8.533-8.533s8.533 3.413 8.533 8.533v119.467c0 5.119-3.413 8.533-8.533 8.533"/><path d="M273.067 213.76h-34.133c-5.12 0-8.533-3.413-8.533-8.533s3.413-8.533 8.533-8.533h34.133c5.12 0 8.533 3.413 8.533 8.533s-3.413 8.533-8.533 8.533M273.067 247.893h-34.133c-5.12 0-8.533-3.413-8.533-8.533s3.413-8.533 8.533-8.533h34.133c5.12 0 8.533 3.413 8.533 8.533s-3.413 8.533-8.533 8.533M128 512.427q-5.12 0-7.68-5.12l-14.507-29.013H28.16C12.8 478.293 0 465.493 0 449.28v-95.573c0-16.213 12.8-29.013 28.16-29.013h115.2c15.36 0 28.16 12.8 28.16 29.013v95.573c0 13.653-9.387 25.6-22.187 28.16l-12.8 29.867c-1.706 3.413-5.12 5.12-8.533 5.12M28.16 341.76c-5.973 0-11.093 5.12-11.093 11.947v95.573c0 6.827 5.12 11.947 11.093 11.947h82.773q5.12 0 7.68 5.12l8.533 17.92 7.68-17.067q2.56-5.12 7.68-5.12c5.973 0 11.093-5.12 11.093-11.947v-96.427c0-6.827-5.12-11.947-11.093-11.947H28.16zM375.467 188.16c-3.413 0-6.827-1.707-7.68-5.12l-12.8-29.867c-12.8-2.56-22.187-14.507-22.187-28.16V29.44c0-16.213 12.8-29.013 28.16-29.013h115.2c14.507 0 27.307 12.8 27.307 29.013v95.573c0 16.213-12.8 29.013-28.16 29.013h-77.653l-14.507 29.013q-2.56 5.121-7.68 5.121M360.96 17.493c-5.973 0-11.093 5.12-11.093 11.947v95.573c0 6.827 5.12 11.947 11.093 11.947 3.413 0 6.827 1.707 7.68 5.12l7.68 17.067 8.533-17.92c1.707-2.56 4.267-5.12 7.68-5.12h82.773c5.973 0 11.093-5.12 11.093-11.947V29.44c0-6.827-5.12-11.947-11.093-11.947zM384 512.427c-3.413 0-6.827-1.707-7.68-5.12l-12.8-29.867c-12.8-2.56-22.187-14.507-22.187-28.16v-95.573c0-16.213 12.8-29.013 28.16-29.013h115.2c15.36 0 28.16 12.8 28.16 29.013v95.573c0 16.213-12.8 29.013-28.16 29.013H407.04l-14.507 29.013c-2.56 3.414-5.12 5.121-8.533 5.121M369.493 341.76c-5.973 0-11.093 5.12-11.093 11.947v95.573c0 6.827 5.12 11.947 11.093 11.947 3.413 0 6.827 1.707 7.68 5.12l7.68 17.067 8.533-17.92c1.707-2.56 4.267-5.12 7.68-5.12h82.773c5.973 0 11.093-5.12 11.093-11.947v-94.72c0-6.827-5.12-11.947-11.093-11.947zM128 188.16q-5.12 0-7.68-5.12l-14.507-29.013H28.16c-15.36 0-28.16-12.8-28.16-29.013V29.44C0 13.227 12.8.427 28.16.427h115.2c14.507 0 27.307 12.8 27.307 29.013v95.573c0 13.653-9.387 25.6-22.187 28.16l-12.8 29.867c-.853 3.413-4.267 5.12-7.68 5.12M28.16 17.493c-5.973 0-11.093 5.12-11.093 11.947v95.573c0 6.827 5.12 11.947 11.093 11.947h82.773q5.12 0 7.68 5.12l8.533 17.92 7.68-17.067q2.56-5.12 7.68-5.12c5.973 0 11.093-5.12 11.093-11.947V29.44c0-6.827-5.12-11.947-11.093-11.947z"/></svg>