<svg xmlns="http://www.w3.org/2000/svg" xml:space="preserve" width="800" height="800" viewBox="0 0 512 512"><path d="M323.267 7.533H24.6c-9.387 0-17.067 7.68-17.067 17.067v85.333h315.733zM485.4 7.533h-59.733v102.4h76.8V24.6c0-9.387-7.68-17.067-17.067-17.067M425.667 109.933V306.2l-51.2-51.2-51.2 51.2V109.933H7.533V485.4c0 9.387 7.68 17.067 17.067 17.067h460.8c9.387 0 17.067-7.68 17.067-17.067V109.933z" style="fill:#fff44f" transform="translate(1 1)"/><path d="M485.4 7.533h-25.6c9.387 0 17.067 7.68 17.067 17.067v85.333h25.6V24.6c0-9.387-7.68-17.067-17.067-17.067M476.867 109.933V485.4c0 9.387-7.68 17.067-17.067 17.067h25.6c9.387 0 17.067-7.68 17.067-17.067V109.933z" style="fill:#ffa474" transform="translate(1 1)"/><path d="M24.6 7.533h25.6c-9.387 0-17.067 7.68-17.067 17.067v85.333h-25.6V24.6c0-9.387 7.68-17.067 17.067-17.067M33.133 109.933V485.4c0 9.387 7.68 17.067 17.067 17.067H24.6c-9.387 0-17.067-7.68-17.067-17.067V109.933z" style="fill:#fff" transform="translate(1 1)"/><path d="m425.667 306.2-51.2-51.2-51.2 51.2V7.533h102.4zM92.867 58.733c0-14.507-11.093-25.6-25.6-25.6s-25.6 11.093-25.6 25.6 11.093 25.6 25.6 25.6 25.6-11.093 25.6-25.6M178.2 58.733c0-14.507-11.093-25.6-25.6-25.6S127 44.226 127 58.733s11.093 25.6 25.6 25.6 25.6-11.093 25.6-25.6M263.533 58.733c0-14.507-11.093-25.6-25.6-25.6s-25.6 11.093-25.6 25.6 11.093 25.6 25.6 25.6 25.6-11.093 25.6-25.6" style="fill:#50b160" transform="translate(1 1)"/><path d="M255 442.733v-153.6c0-9.387-7.68-17.067-17.067-17.067h-153.6c-9.387 0-17.067 7.68-17.067 17.067v51.2l-25.6 25.6 25.6 25.6v51.2c0 9.387 7.68 17.067 17.067 17.067h153.6c9.387 0 17.067-7.68 17.067-17.067" style="fill:#6495ed" transform="translate(1 1)"/><path d="M68.267 93.867c-18.773 0-34.133-15.36-34.133-34.133S49.493 25.6 68.267 25.6 102.4 40.96 102.4 59.733 87.04 93.867 68.267 93.867m0-51.2c-9.387 0-17.067 7.68-17.067 17.067S58.88 76.8 68.267 76.8s17.067-7.68 17.067-17.067-7.681-17.066-17.067-17.066M153.6 93.867c-18.773 0-34.133-15.36-34.133-34.133S134.827 25.6 153.6 25.6s34.133 15.36 34.133 34.133-15.36 34.134-34.133 34.134m0-51.2c-9.387 0-17.067 7.68-17.067 17.067S144.213 76.8 153.6 76.8s17.067-7.68 17.067-17.067-7.68-17.066-17.067-17.066M238.933 93.867c-18.773 0-34.133-15.36-34.133-34.133S220.16 25.6 238.933 25.6s34.133 15.36 34.133 34.133-15.359 34.134-34.133 34.134m0-51.2c-9.387 0-17.067 7.68-17.067 17.067s7.68 17.067 17.067 17.067S256 69.12 256 59.733s-7.68-17.066-17.067-17.066M418.133 366.933h-93.867c-5.12 0-8.533-3.413-8.533-8.533s3.413-8.533 8.533-8.533h93.867c5.12 0 8.533 3.413 8.533 8.533s-3.413 8.533-8.533 8.533M418.133 469.333h-93.867c-5.12 0-8.533-3.413-8.533-8.533s3.413-8.533 8.533-8.533h93.867c5.12 0 8.533 3.413 8.533 8.533s-3.413 8.533-8.533 8.533M460.8 418.133H349.867c-5.12 0-8.533-3.413-8.533-8.533s3.413-8.533 8.533-8.533H460.8c5.12 0 8.533 3.413 8.533 8.533s-3.413 8.533-8.533 8.533M213.333 221.867H76.8c-5.12 0-8.533-3.413-8.533-8.533s3.413-8.533 8.533-8.533h136.533c5.12 0 8.533 3.413 8.533 8.533.001 5.119-3.413 8.533-8.533 8.533M256 170.667H102.4c-5.12 0-8.533-3.413-8.533-8.533s3.413-8.533 8.533-8.533H256c5.12 0 8.533 3.413 8.533 8.533s-3.413 8.533-8.533 8.533M238.933 469.333h-153.6c-14.507 0-25.6-11.093-25.6-25.6v-47.787l-23.04-23.04c-3.413-3.413-3.413-8.533 0-11.947l23.04-23.04v-47.787c0-14.507 11.093-25.6 25.6-25.6h153.6c14.507 0 25.6 11.093 25.6 25.6v153.6c0 14.508-11.093 25.601-25.6 25.601m-184.32-102.4L74.24 386.56c1.707 1.707 2.56 3.413 2.56 5.973v51.2c0 5.12 3.413 8.533 8.533 8.533h153.6c5.12 0 8.533-3.413 8.533-8.533v-153.6c0-5.12-3.413-8.533-8.533-8.533h-153.6c-5.12 0-8.533 3.413-8.533 8.533v51.2c0 2.56-.853 4.267-2.56 5.973z"/><path d="M136.533 426.667c-14.507 0-25.6-11.093-25.6-25.6v-13.653l-14.507-14.507c-1.707-1.707-2.56-4.267-2.56-5.973 0-2.56.853-4.267 2.56-5.973l14.507-14.507V332.8c0-14.507 11.093-25.6 25.6-25.6 5.12 0 8.533 3.413 8.533 8.533s-3.413 8.533-8.533 8.533c-4.267 0-8.533 4.267-8.533 8.533v17.067c0 2.56-.853 4.267-2.56 5.973l-11.093 11.093 11.093 11.093c1.707 1.707 2.56 3.413 2.56 5.973v17.067c0 4.267 4.267 8.533 8.533 8.533 5.12 0 8.533 3.413 8.533 8.533s-3.413 8.536-8.533 8.536M187.733 426.667c-5.12 0-8.533-3.413-8.533-8.533s3.413-8.533 8.533-8.533c4.267 0 8.533-4.267 8.533-8.533V384c0-2.56.853-4.267 2.56-5.973l11.093-11.093-11.093-11.093c-1.707-1.707-2.56-3.413-2.56-5.973V332.8c0-4.267-4.267-8.533-8.533-8.533-5.12 0-8.533-3.413-8.533-8.533s3.413-8.533 8.533-8.533c14.507 0 25.6 11.093 25.6 25.6v13.653l14.507 14.507c3.413 3.413 3.413 8.533 0 11.947l-14.507 14.507v13.653c0 14.505-11.093 25.599-25.6 25.599M426.667 315.733c-2.56 0-4.267-.853-5.973-2.56l-45.227-45.227-45.227 45.227c-2.56 2.56-5.973 3.413-9.387 1.707-3.413-.853-5.12-4.267-5.12-7.68V8.533c0-5.12 3.413-8.533 8.533-8.533h102.4c5.12 0 8.533 3.413 8.533 8.533V307.2c0 3.413-1.707 6.827-5.12 7.68-.852.853-2.559.853-3.412.853m-51.2-68.266c2.56 0 4.267.853 5.973 2.56l36.693 36.693V17.067H332.8V286.72l36.693-36.693c1.707-1.707 3.414-2.56 5.974-2.56"/><path d="M324.267 119.467H8.533c-5.12 0-8.533-3.413-8.533-8.533V25.6C0 11.093 11.093 0 25.6 0h298.667c5.12 0 8.533 3.413 8.533 8.533v102.4c0 5.12-3.413 8.534-8.533 8.534M17.067 102.4h298.667V17.067H25.6c-5.12 0-8.533 3.413-8.533 8.533zM503.467 119.467h-76.8c-5.12 0-8.533-3.413-8.533-8.533V8.533c0-5.12 3.413-8.533 8.533-8.533H486.4C500.907 0 512 11.093 512 25.6v85.333c0 5.12-3.413 8.534-8.533 8.534M435.2 102.4h59.733V25.6c0-5.12-3.413-8.533-8.533-8.533h-51.2z"/><path d="M486.4 512H25.6C11.093 512 0 500.907 0 486.4V110.933c0-5.12 3.413-8.533 8.533-8.533h315.733c5.12 0 8.533 3.413 8.533 8.533V286.72l36.693-36.693c3.413-3.413 8.533-3.413 11.947 0l36.693 36.693V110.933c0-5.12 3.413-8.533 8.533-8.533h76.8c5.12 0 8.533 3.413 8.533 8.533V486.4C512 500.907 500.907 512 486.4 512M17.067 119.467V486.4c0 5.12 3.413 8.533 8.533 8.533h460.8c5.12 0 8.533-3.413 8.533-8.533V119.467H435.2V307.2c0 3.413-1.707 6.827-5.12 7.68-3.413 1.707-6.827.853-9.387-1.707l-45.227-45.227-45.227 45.227c-2.56 2.56-5.973 3.413-9.387 1.707-3.413-.853-5.12-4.267-5.12-7.68V119.467z"/></svg>