<svg xmlns="http://www.w3.org/2000/svg" viewBox="0 0 500 500"><defs><clipPath id="a"><path d="M250.43 155.56c-46.89.66-85 39.11-85.34 86a86.4 86.4 0 0 0 32.26 68 23.7 23.7 0 0 1 7.56 11.14l4 12.37h85.48l4.09-12.62a23 23 0 0 1 7.38-10.8 86.57 86.57 0 0 0-55.45-154.06Z" style="fill:#fff;stroke:#263238;stroke-linecap:round;stroke-linejoin:round"/></clipPath><clipPath id="b"><path d="M284.06 398.88h-64.78l-7.71-54.9h80.2z" style="fill:#999;stroke:#263238;stroke-linecap:round;stroke-linejoin:round"/></clipPath><clipPath id="c"><path d="M214.68 371.21a2.31 2.31 0 0 1-.17-4.62l74-5.47a2.31 2.31 0 1 1 .34 4.61l-74 5.47Z" style="fill:#bfbfbf;stroke:#263238;stroke-linecap:round;stroke-linejoin:round"/></clipPath><clipPath id="d"><path d="M216 380.13a2.31 2.31 0 0 1-.17-4.62l71.44-5.29a2.31 2.31 0 0 1 .34 4.61l-71.44 5.29Z" style="fill:#bfbfbf;stroke:#263238;stroke-linecap:round;stroke-linejoin:round"/></clipPath><clipPath id="e"><path d="M217.21 389.05a2.31 2.31 0 0 1-.16-4.62l68.9-5.09a2.31 2.31 0 0 1 .34 4.61l-68.9 5.1Z" style="fill:#bfbfbf;stroke:#263238;stroke-linecap:round;stroke-linejoin:round"/></clipPath><clipPath id="f"><path d="M218.48 398a2.31 2.31 0 0 1-.17-4.62l66.37-4.91a2.31 2.31 0 1 1 .34 4.61L218.65 398Z" style="fill:#bfbfbf;stroke:#263238;stroke-linecap:round;stroke-linejoin:round"/></clipPath><clipPath id="g"><path d="M300.71 326.66 298.17 355l-5.94 4.48h-81.12l-5.95-4.48-2.53-28.34 1.76-4.49h94.55z" style="fill:#fff44f;stroke:#263238;stroke-linecap:round;stroke-linejoin:round"/></clipPath></defs><path d="M453 379.17c-29.17 45.62-91.05 77.11-199.17 77.11-100.52 0-161.5-27.22-193.59-67.71C-33 271 117.45 41.46 250.54 41.46c129.63 0 279.15 217.74 202.46 337.71" style="fill:#fff44f"/><path d="M453 379.17c-29.17 45.62-91.05 77.11-199.17 77.11-100.52 0-161.5-27.22-193.59-67.71C-33 271 117.45 41.46 250.54 41.46c129.63 0 279.15 217.74 202.46 337.71" style="fill:#fff;opacity:.7000000000000001"/><path d="M453 378.44v.73c-29.17 45.62-91.05 77.11-199.17 77.11-100.52 0-161.5-27.22-193.59-67.71v-17h11.6v11.08h6.85v12.66h13.79v-23.73h8.75v-18.73h15.13v-25.58l2.57-2.56v28.15h5.22v30.33h6.09V418h8.06v-24.79l13-13V355.5l3.62 3.61v35.15l4.33 4.34v12h15.25v-13.7H169v-3.69h5.51v-5.28h14.43v-16.57h3.7v16.57H199v35.87h17.21v-13.18l10-10h8.09v-18.49h4.7v18.46h5.78l10.07 10.08v13.13h13.25v-24.26h12.2l14-14v-19.3h3.95v20.61l12.63 12.63h17.09v14.27h10.35v-30.04h13.13V348h-2.44v-13.81h2.44v-9.48h3.87v32.13l5.55 5.54v22.39h13.45v5.8h15V365h6.85v-26h2.27v26h9.44L419 376.25v9.57h9.42v-15.29h15.28v7.91Z" style="fill:#fff44f;opacity:.4"/><path d="M105.12 356.07h6.23v6.23h-6.23zM112.97 356.07h6.23v6.23h-6.23zM105.12 364.03h6.23v6.23h-6.23zM112.97 364.03h6.23v6.23h-6.23zM105.12 371.98h6.23v6.23h-6.23zM112.97 371.98h6.23v6.23h-6.23zM105.12 379.94h6.23v6.23h-6.23zM112.97 379.94h6.23v6.23h-6.23zM105.12 387.9h6.23v6.23h-6.23zM112.97 387.9h6.23v6.23h-6.23zM105.12 395.86h6.23v6.23h-6.23zM105.12 403.82h6.23v6.23h-6.23zM112.97 403.82h6.23v6.23h-6.23zM105.12 411.78h6.23v6.23h-6.23zM112.97 411.78h6.23v6.23h-6.23zM105.12 419.74h6.23v6.23h-6.23zM112.97 419.74h6.23v6.23h-6.23zM120.81 387.9h6.23v6.23h-6.23zM120.81 395.86h6.23v6.23h-6.23zM120.81 403.82h6.23v6.23h-6.23zM120.81 419.74h6.23v6.23h-6.23zM97.27 379.94h6.23v6.23h-6.23zM97.27 387.9h6.23v6.23h-6.23zM97.27 395.86h6.23v6.23h-6.23zM97.27 403.82h6.23v6.23h-6.23zM147.81 385.98h4.99v6.23h-4.99zM147.81 393.85h4.99v6.23h-4.99zM147.81 401.71h4.99v6.23h-4.99zM147.81 409.57h4.99v6.23h-4.99zM147.81 417.43h4.99v6.23h-4.99zM147.81 425.29h4.99v6.23h-4.99zM141.27 393.89h4.99v6.23h-4.99zM141.27 401.75h4.99v6.23h-4.99zM141.27 409.6h4.99v6.23h-4.99zM141.27 417.46h4.99v6.23h-4.99zM141.27 425.31h4.99v6.23h-4.99zM141.27 433.17h4.99v6.23h-4.99zM70.01 386.85H75v6.23h-4.99zM70.01 394.81H75v6.23h-4.99zM70.01 402.77H75V409h-4.99zM70.01 418.68H75v6.23h-4.99zM70.01 426.64H75v6.23h-4.99zM63.47 386.85h4.99v6.23h-4.99zM63.47 394.81h4.99v6.23h-4.99zM63.47 402.77h4.99V409h-4.99zM63.47 410.72h4.99v6.23h-4.99zM63.47 418.68h4.99v6.23h-4.99zM183.91 390.94h5.44v6.23h-5.44zM190.76 390.94h5.44v6.23h-5.44zM183.91 398.79h5.44v6.23h-5.44zM190.76 398.79h5.44v6.23h-5.44zM183.91 406.64h5.44v6.23h-5.44zM190.76 406.64h5.44v6.23h-5.44zM183.91 414.49h5.44v6.23h-5.44zM190.76 414.49h5.44v6.23h-5.44zM183.91 422.34h5.44v6.23h-5.44zM190.76 422.34h5.44v6.23h-5.44zM183.91 430.19h5.44v6.23h-5.44zM190.76 430.19h5.44v6.23h-5.44zM177.07 390.94h5.44v6.23h-5.44zM177.07 398.79h5.44v6.23h-5.44zM177.07 406.64h5.44v6.23h-5.44zM177.07 414.49h5.44v6.23h-5.44zM228.79 410.7h6.23v6.23h-6.23zM236.64 410.7h6.23v6.23h-6.23zM228.79 418.51h6.23v6.23h-6.23zM236.64 418.51h6.23v6.23h-6.23zM228.79 426.32h6.23v6.23h-6.23zM236.64 426.32h6.23v6.23h-6.23zM228.79 434.12h6.23v6.23h-6.23zM236.64 434.12h6.23v6.23h-6.23zM228.79 441.93h6.23v6.23h-6.23zM236.64 441.93h6.23v6.23h-6.23zM244.48 410.7h6.23v6.23h-6.23zM244.48 418.51h6.23v6.23h-6.23zM244.48 434.12h6.23v6.23h-6.23zM244.48 441.93h6.23v6.23h-6.23zM220.95 410.7h6.23v6.23h-6.23zM220.95 418.51h6.23v6.23h-6.23zM220.95 426.32h6.23v6.23h-6.23zM349.58 387.9h6.23v6.23h-6.23zM357.43 387.9h6.23v6.23h-6.23zM349.58 395.88h6.23v6.23h-6.23zM357.43 395.88h6.23v6.23h-6.23zM349.58 403.85h6.23v6.23h-6.23zM357.43 403.85h6.23v6.23h-6.23zM349.58 411.83h6.23v6.23h-6.23zM357.43 411.83h6.23v6.23h-6.23zM349.58 419.81h6.23v6.23h-6.23zM357.43 419.81h6.23v6.23h-6.23zM365.28 387.9h6.23v6.23h-6.23zM365.28 395.88h6.23v6.23h-6.23zM365.28 419.81h6.23v6.23h-6.23zM393.1 377.14h6.23v6.23h-6.23zM400.95 377.14h6.23v6.23h-6.23zM393.1 385.12h6.23v6.23h-6.23zM400.95 385.12h6.23v6.23h-6.23zM393.1 393.09h6.23v6.23h-6.23zM400.95 393.09h6.23v6.23h-6.23zM393.1 401.07h6.23v6.23h-6.23zM400.95 401.07h6.23v6.23h-6.23zM393.1 409.05h6.23v6.23h-6.23zM400.95 409.05h6.23v6.23h-6.23zM408.79 377.14h6.23v6.23h-6.23zM408.79 385.12h6.23v6.23h-6.23zM408.79 393.09h6.23v6.23h-6.23zM408.79 401.07h6.23v6.23h-6.23zM408.79 409.05h6.23v6.23h-6.23zM431.06 381.25h5.23v6.23h-5.23zM437.91 381.25h5.23v6.23h-5.23zM431.06 389.21h5.23v6.23h-5.23zM437.91 389.21h5.23v6.23h-5.23zM431.06 397.17h5.23v6.23h-5.23zM437.91 397.17h5.23v6.23h-5.23zM437.91 405.13h5.23v6.23h-5.23zM431.06 413.09h5.23v6.23h-5.23zM444.76 381.25h5.23v6.23h-5.23zM444.76 405.13h5.23v6.23h-5.23zM341.74 387.9h6.23v6.23h-6.23zM341.74 395.88h6.23v6.23h-6.23zM341.74 403.85h6.23v6.23h-6.23zM341.74 411.83h6.23v6.23h-6.23zM302.7 411.72h6.23v6.23h-6.23zM295.06 411.72h6.23v6.23h-6.23zM287.43 411.72h6.23v6.23h-6.23zM279.79 411.72h6.23v6.23h-6.23zM272.15 411.72h6.23v6.23h-6.23zM310.34 411.72h6.23v6.23h-6.23zM317.98 411.72h6.23v6.23h-6.23zM302.7 419.66h6.23v6.23h-6.23zM295.06 419.66h6.23v6.23h-6.23zM287.43 419.66h6.23v6.23h-6.23zM279.79 419.66h6.23v6.23h-6.23zM272.15 419.66h6.23v6.23h-6.23zM310.34 419.66h6.23v6.23h-6.23zM317.98 419.66h6.23v6.23h-6.23zM302.7 427.61h6.23v6.23h-6.23zM295.06 427.61h6.23v6.23h-6.23zM287.43 427.61h6.23v6.23h-6.23zM279.79 427.61h6.23v6.23h-6.23zM310.34 427.61h6.23v6.23h-6.23zM302.7 435.55h6.23v6.23h-6.23zM295.06 435.55h6.23v6.23h-6.23zM279.79 435.55h6.23v6.23h-6.23zM310.34 435.55h6.23v6.23h-6.23zM302.7 443.49h6.23v6.23h-6.23zM295.06 443.49h6.23v6.23h-6.23zM287.43 443.49h6.23v6.23h-6.23zM279.79 443.49h6.23v6.23h-6.23zM272.15 443.49h6.23v6.23h-6.23zM310.34 443.49h6.23v6.23h-6.23zM317.98 443.49h6.23v6.23h-6.23zM302.7 451.43h6.23v6.23h-6.23zM287.43 451.43h6.23v6.23h-6.23zM279.79 451.43h6.23v6.23h-6.23zM272.15 451.43h6.23v6.23h-6.23zM302.7 459.38h6.23v6.23h-6.23zM279.79 459.38h6.23v6.23h-6.23zM317.98 459.38h6.23v6.23h-6.23zM302.7 403.78h6.23v6.23h-6.23zM295.06 403.78h6.23v6.23h-6.23zM287.43 403.78h6.23v6.23h-6.23zM279.79 403.78h6.23v6.23h-6.23zM272.15 403.78h6.23v6.23h-6.23zM310.34 403.78h6.23v6.23h-6.23zM317.98 403.78h6.23v6.23h-6.23zM400.95 417.02h6.23v6.23h-6.23zM400.95 425h6.23v6.23h-6.23zM393.1 432.97h6.23v6.23h-6.23zM408.79 417.02h6.23v6.23h-6.23zM408.79 425h6.23v6.23h-6.23zM357.43 427.78h6.23v6.23h-6.23zM349.58 435.76h6.23v6.23h-6.23zM357.43 435.76h6.23v6.23h-6.23zM349.58 443.74h6.23v6.23h-6.23zM357.43 443.74h6.23v6.23h-6.23zM365.28 427.78h6.23v6.23h-6.23zM365.28 435.76h6.23v6.23h-6.23zM341.74 427.78h6.23v6.23h-6.23zM228.79 449.73h6.23v6.23h-6.23zM236.64 449.73h6.23v6.23h-6.23zM228.79 457.54h6.23v6.23h-6.23zM220.95 449.73h6.23v6.23h-6.23zM183.91 438.04h5.44v6.23h-5.44zM190.76 438.04h5.44v6.23h-5.44zM190.76 445.89h5.44v6.23h-5.44zM177.07 438.04h5.44v6.23h-5.44zM177.07 453.74h5.44v6.23h-5.44zM147.81 448.87h4.99v6.23h-4.99zM147.81 456.74h4.99v6.23h-4.99zM141.27 441.03h4.99v6.23h-4.99zM141.27 448.88h4.99v6.23h-4.99zM112.97 427.78h6.23v6.23h-6.23zM105.12 435.74h6.23v6.23h-6.23z" style="fill:#fff"/><path d="M253.84 84.08c0-1.23 0-2.46-.05-3.69M253.79 120.86q.17-11.33.14-22.66M253.79 140.94v-6.4M305.29 94.08c1-2.21 2-4.41 3.09-6.58M290.89 128.3c4.11-8.9 7.57-18.07 11.34-27.11M282.76 147.27q2.65-6.2 5.3-12.37M275.44 140.94l10.68-37.95M214.11 110.35c3.64 11.36 6.73 22.93 10.41 34.11M207.14 87.5q2.45 8 4.88 16M215.7 143.94l1.5 3.33M205.31 120.86l7.58 16.83M162.64 161.49c3.86 4.46 7.69 8.95 11.42 13.53M145.4 141.1c4 5.07 8.27 10 12.51 14.92M137.46 131.72l3 3.59M147.37 160.79l20.43 19.72M149.54 225.57l6.22 1.59M105.05 214.2l38.19 9.8M93.7 211.3l4.13 1.06M141.23 212.66l14.53 6.57M124.73 205.21l10 4.52M378.16 136.13l2.49-2.06M366.56 145.75l5.8-4.81M342.69 165.53l18.1-15M327.89 177.79l9.32-7.72M330.03 131.72l-20.13 27.75M409.82 195.55l4.37-1.32M369.14 207.87c11.39-3.33 22.82-6.53 34.07-10.31M348.93 214.05c4.36-1.43 8.75-2.78 13.15-4.1M351.37 225.03l37.2-4.86M405 289.6l5.54 1.78M350.15 272c16.37 4.63 31.78 10.79 48.17 15.44M375.59 269l21.83 3M351.37 265.6l16.83 2.4M367.07 357.51l2.81 3.51M327.89 308.52c11.65 14.37 23.21 29 35 43.73M345.11 316.33q5.07 4.94 10.13 9.88M332.47 304l8.42 8.21M151.12 358.05l-2.22 3.06M164.82 339.29c-3.14 4.41-6.32 8.8-9.59 13.12M184 312.93c-5.19 6.67-10.09 13.57-15 20.47M166.08 318.3l-11.39 10.24M177.86 307.71l-6.73 6.05M119.38 294.23l-13.17 6.57M159 274.5c-10.58 5.23-22.14 10.62-33.3 16.6M155.76 258.49l-28.82 5.03M338.24 194.23l17-10.37M182.74 143l10.37 16.47M318.74 333.86l6.41 13.64M313.26 322.17c.89 1.9 1.79 3.81 2.68 5.72M373.08 300.05l3.6 2.12M346.74 284.5l20.2 11.92M396.05 249.57h9.6M354.27 249.57c11.48.1 23 .1 34.93 0M110 250l-17.51.29M144.12 249.49c-9.25.19-18.5.23-27.76.35M154.69 249.21l-3.74.12M138 178.12l-14.39-9.23M163.13 194.23l-18.87-12.09" style="fill:none;stroke:#263238;stroke-linecap:round;stroke-linejoin:round"/><path d="M250.43 155.56c-46.89.66-85 39.11-85.34 86a86.4 86.4 0 0 0 32.26 68 23.7 23.7 0 0 1 7.56 11.14l4 12.37h85.48l4.09-12.62a23 23 0 0 1 7.38-10.8 86.57 86.57 0 0 0-55.45-154.06Z" style="fill:#fff"/><g style="clip-path:url(#a)"><path d="M230.6 325.91c.05 2.17 0 3.4 0 3.4M228.5 299.42c1.07 7.86 1.61 15.05 1.88 20.41M220.79 255.47h-6.08c6.29 9.53 10.09 22.66 12.39 35.22M232.89 252.98l-.71 2.49h-9.34M239.57 260.05l-.81 2.74-4.67-14.03-.74 2.59M249.22 256.74l-1.85 6.05-4.49-14.03-2.41 8.22M262.33 255.15l-1.87-6.39-4.49 14.03-4.3-14.03-1.26 4.11M273.92 255.47h-2.77l-1.9-6.71-4.68 14.03-1.47-5.03M277.55 284.21c2.36-10.47 5.86-20.85 11.07-28.74h-11.8M275 298.12c.48-3.37 1.07-6.86 1.77-10.36M273.27 314.62c.25-3.52.61-7.49 1.12-11.73M272.85 322.17c0-.92.09-1.92.14-3M272.7 329.31s0-1.64.06-4.47" style="fill:none;stroke:#263238;stroke-linecap:round;stroke-linejoin:round"/><path d="M250.43 155.56c-46.89.66-85 39.11-85.34 86a86.4 86.4 0 0 0 32.26 68 23.7 23.7 0 0 1 7.56 11.14l4 12.37h85.48l4.09-12.62a23 23 0 0 1 7.38-10.8 86.57 86.57 0 0 0-55.45-154.06Zm1.24 141.7A66.28 66.28 0 1 1 317.94 231a66.27 66.27 0 0 1-66.27 66.26" style="fill:#fff44f;opacity:.2"/></g><path d="M250.43 155.56c-46.89.66-85 39.11-85.34 86a86.4 86.4 0 0 0 32.26 68 23.7 23.7 0 0 1 7.56 11.14l4 12.37h85.48l4.09-12.62a23 23 0 0 1 7.38-10.8 86.57 86.57 0 0 0-55.45-154.06Z" style="fill:none;stroke:#263238;stroke-linecap:round;stroke-linejoin:round"/><path d="M261.68 416.27h-20a2.8 2.8 0 0 1-2.44-1.42l-3-5.28-11.57-6.71h54.13l-11.56 6.71-3 5.28a2.83 2.83 0 0 1-2.56 1.42" style="fill:#263238;stroke:#263238;stroke-linecap:round;stroke-linejoin:round"/><path d="M284.06 398.88h-64.78a14.09 14.09 0 0 0 12.69 8h39.39a14.11 14.11 0 0 0 12.7-8" style="fill:#757575;stroke:#263238;stroke-linecap:round;stroke-linejoin:round"/><path d="M284.06 398.88h-64.78l-7.71-54.9h80.2z" style="fill:#999"/><g style="clip-path:url(#b)"><path d="m222.6 380.82.71 6.29 57.21-4.43.73-6.52zM244.15 397H274a5.48 5.48 0 0 0 4.74-2.75ZM223.61 389.78l.26 2.35a5.47 5.47 0 0 0 2 3.62l53.67-4.16.71-6.31ZM282.55 364.63l.22-1.98h-62.199999999999996l.75 6.73zM221.62 372.05l.69 6.09 59.24-4.59.7-6.31z" style="fill:#fff;opacity:.4"/></g><path d="M284.06 398.88h-64.78l-7.71-54.9h80.2z" style="fill:none;stroke:#263238;stroke-linecap:round;stroke-linejoin:round"/><path d="M214.68 371.21a2.31 2.31 0 0 1-.17-4.62l74-5.47a2.31 2.31 0 1 1 .34 4.61l-74 5.47Z" style="fill:#bfbfbf"/><g style="clip-path:url(#c)"><g style="opacity:.4"><path d="M290.69 362.36a2.27 2.27 0 0 1-1.87 1.23l-74 5.47h-.17a1.38 1.38 0 1 1-.17-2.48l74-5.47a2.3 2.3 0 0 1 2.21 1.25" style="fill:#fff"/></g></g><path d="M214.68 371.21a2.31 2.31 0 0 1-.17-4.62l74-5.47a2.31 2.31 0 1 1 .34 4.61l-74 5.47Z" style="fill:none;stroke:#263238;stroke-linecap:round;stroke-linejoin:round"/><path d="M216 380.13a2.31 2.31 0 0 1-.17-4.62l71.44-5.29a2.31 2.31 0 0 1 .34 4.61l-71.44 5.29Z" style="fill:#bfbfbf"/><g style="clip-path:url(#d)"><g style="opacity:.4"><path d="M289.43 371.46a2.27 2.27 0 0 1-1.87 1.23L216.12 378H216a1.38 1.38 0 1 1-.17-2.48l71.44-5.29a2.33 2.33 0 0 1 2.16 1.23" style="fill:#fff"/></g></g><path d="M216 380.13a2.31 2.31 0 0 1-.17-4.62l71.44-5.29a2.31 2.31 0 0 1 .34 4.61l-71.44 5.29Z" style="fill:none;stroke:#263238;stroke-linecap:round;stroke-linejoin:round"/><path d="M217.21 389.05a2.31 2.31 0 0 1-.16-4.62l68.9-5.09a2.31 2.31 0 0 1 .34 4.61l-68.9 5.1Z" style="fill:#bfbfbf"/><g style="clip-path:url(#e)"><g style="opacity:.4"><path d="M288.16 380.58a2.24 2.24 0 0 1-1.87 1.23l-68.9 5.1h-.18a1.38 1.38 0 1 1-.17-2.49l68.9-5.09a2.31 2.31 0 0 1 2.22 1.25" style="fill:#fff"/></g></g><path d="M217.21 389.05a2.31 2.31 0 0 1-.16-4.62l68.9-5.09a2.31 2.31 0 0 1 .34 4.61l-68.9 5.1Z" style="fill:none;stroke:#263238;stroke-linecap:round;stroke-linejoin:round"/><path d="M218.48 398a2.31 2.31 0 0 1-.17-4.62l66.37-4.91a2.31 2.31 0 1 1 .34 4.61L218.65 398Z" style="fill:#bfbfbf"/><g style="clip-path:url(#f)"><g style="opacity:.4"><path d="M286.9 389.68a2.29 2.29 0 0 1-1.87 1.24l-66.38 4.91h-.17a1.38 1.38 0 1 1-.17-2.48l66.37-4.91a2.32 2.32 0 0 1 2.22 1.24" style="fill:#fff"/></g></g><path d="M218.48 398a2.31 2.31 0 0 1-.17-4.62l66.37-4.91a2.31 2.31 0 1 1 .34 4.61L218.65 398Z" style="fill:none;stroke:#263238;stroke-linecap:round;stroke-linejoin:round"/><path d="M300.71 326.66 298.17 355l-5.94 4.48h-81.12l-5.95-4.48-2.53-28.34 1.76-4.49h94.55z" style="fill:#fff44f"/><g style="clip-path:url(#g)"><path d="m298.17 355-5.94 4.48h-81.12l-5.95-4.48z" style="fill-opacity:.7000000000000001;opacity:.2"/><path d="M300.71 326.66h-98.08l1.76-4.49h94.55z" style="fill:#fff;opacity:.4"/></g><path d="M300.71 326.66 298.17 355l-5.94 4.48h-81.12l-5.95-4.48-2.53-28.34 1.76-4.49h94.55zM202.63 326.66h36.32M244.65 326.66h9.14M260.3 326.66h2.03M300.71 326.66h-8.94M298.17 355h-35.84M256.44 355h-11.79M235.5 355h-2.44M205.16 355h9.74" style="fill:none;stroke:#263238;stroke-linecap:round;stroke-linejoin:round"/><path d="M230.83 400.21c3.37 3.1 11.43 5.29 20.84 5.29s17.46-2.19 20.84-5.29Z" style="fill:#fff;opacity:.4"/><path d="M256 415h-8.7a1.43 1.43 0 0 1-1.35-1l-1.22-3.75h13.87l-1.22 3.75a1.42 1.42 0 0 1-1.38 1M244.73 408.8h13.87l1.55-1.18h-16.96z" style="fill:#fff;opacity:.2"/></svg>