<svg xmlns="http://www.w3.org/2000/svg" viewBox="0 0 500 500"><defs><clipPath id="a"><path d="M274 131.55s13.62-15.61 33.49-15.61c0 0 .66-12.13 14.22-14.75s16.2 9.49 16.2 9.49 10-5.31 23.47 0 10.73 20.83 10.73 20.83 38.81-1.27 45.47 5.85H243.1s3.52-8.71 30.9-5.81" style="fill:none;stroke:#263238;stroke-linecap:round;stroke-linejoin:round"/></clipPath><clipPath id="b"><path d="M440.19 233.92s-10.87-12.45-26.71-12.45c0 0-.53-9.67-11.34-11.76s-12.92 7.57-12.92 7.57-8-4.24-18.72 0-8.56 16.61-8.56 16.61-31-1-36.27 4.67h139.14s-2.81-6.95-24.62-4.64" style="fill:none;stroke:#263238;stroke-linecap:round;stroke-linejoin:round"/></clipPath><clipPath id="c"><path d="M71 160.4s6.44-7.4 15.85-7.4a7.88 7.88 0 0 1 6.73-7c6.43-1.24 7.68 4.49 7.68 4.49a14.07 14.07 0 0 1 11.12 0c6.37 2.52 5.08 9.87 5.08 9.87s18.39-.6 21.54 2.77H56.36S58 159 71 160.4" style="fill:none;stroke:#263238;stroke-linecap:round;stroke-linejoin:round"/></clipPath><clipPath id="d"><path d="M230.92 369.94h-34.74v-183a114 114 0 0 1 17.37-60.5h0a114 114 0 0 1 17.37 60.5Z" style="fill:#fff44f;stroke:#263238;stroke-linecap:round;stroke-linejoin:round"/></clipPath><clipPath id="e"><path d="M146.92 369.94h-34.74v-183a114 114 0 0 1 17.37-60.5h0a114 114 0 0 1 17.37 60.5Z" style="fill:#fff44f;stroke:#263238;stroke-linecap:round;stroke-linejoin:round"/></clipPath><clipPath id="f"><path d="M196.58 369.94h-50.06V106.15a164.33 164.33 0 0 1 25-87.19h0a164.4 164.4 0 0 1 25 87.18Z" style="fill:#fff44f;stroke:#263238;stroke-linecap:round;stroke-linejoin:round"/></clipPath><clipPath id="g"><path d="M189.45 263.55v100.11h-35.6V263.55a44.8 44.8 0 0 1 9.33-27.3 10.72 10.72 0 0 1 16.94 0 44.5 44.5 0 0 1 4.54 7.21 43 43 0 0 1 2.39 5.66 44.6 44.6 0 0 1 2.4 14.43" style="fill:#fff;stroke:#263238;stroke-linecap:round;stroke-linejoin:round"/></clipPath><clipPath id="h"><rect width="92.97" height="108.36" x="269.24" y="232.82" rx="5.44" style="fill:#757575;stroke:#263238;stroke-linecap:round;stroke-linejoin:round"/></clipPath><clipPath id="i"><circle cx="315.73" cy="295.69" r="18.81" style="fill:#fff44f;stroke:#263238;stroke-linecap:round;stroke-linejoin:round"/></clipPath></defs><path d="M67.93 167.09s-27.88 72 11.3 144.5 119.88 110.8 184.47 143.55 131.66 16.8 163.53-36.84-11.84-91.93-11.9-168.42 11.45-96.74-30-161.36-143.06-78.93-219.9-31-97.5 109.57-97.5 109.57" style="fill:#fff;opacity:.7000000000000001"/><path d="m97.73 83.78.56-.5c51.57-46.44 120.06-48.53 170 1.45 26 26.05 72.19 21.07 105.23 30.49C487.4 147.71 467.7 302.28 411.43 377c-50.78 67.43-160.81 82.66-234.73 49.49-65-29.16-110.7-94.28-127-162.37q-2.44-10.25-4-20.68c-8.54-57.97 7.91-119.54 52.03-159.66" style="fill:#fff44f"/><path d="m97.73 83.78.56-.5c51.57-46.44 120.06-48.53 170 1.45 26 26.05 72.19 21.07 105.23 30.49C487.4 147.71 467.7 302.28 411.43 377c-50.78 67.43-160.81 82.66-234.73 49.49-65-29.16-110.7-94.28-127-162.37q-2.44-10.25-4-20.68c-8.54-57.97 7.91-119.54 52.03-159.66" style="fill:#fff;opacity:.7000000000000001"/><g style="clip-path:url(#a)"><path d="M274 131.55s13.62-15.61 33.49-15.61c0 0 .66-12.13 14.22-14.75s16.2 9.49 16.2 9.49 10-5.31 23.47 0 10.73 20.83 10.73 20.83 38.81-1.27 45.47 5.85H243.1s3.52-8.71 30.9-5.81" style="fill:none;stroke:#263238;stroke-linecap:round;stroke-linejoin:round;opacity:.5"/></g><path d="M274 131.55s13.62-15.61 33.49-15.61c0 0 .66-12.13 14.22-14.75s16.2 9.49 16.2 9.49 10-5.31 23.47 0 10.73 20.83 10.73 20.83 38.81-1.27 45.47 5.85H243.1s3.52-8.71 30.9-5.81" style="fill:none;stroke:#263238;stroke-linecap:round;stroke-linejoin:round"/><g style="clip-path:url(#b)"><path d="M440.19 233.92s-10.87-12.45-26.71-12.45c0 0-.53-9.67-11.34-11.76s-12.92 7.57-12.92 7.57-8-4.24-18.72 0-8.56 16.61-8.56 16.61-31-1-36.27 4.67h139.14s-2.81-6.95-24.62-4.64" style="fill:none;stroke:#263238;stroke-linecap:round;stroke-linejoin:round;opacity:.5"/></g><path d="M440.19 233.92s-10.87-12.45-26.71-12.45c0 0-.53-9.67-11.34-11.76s-12.92 7.57-12.92 7.57-8-4.24-18.72 0-8.56 16.61-8.56 16.61-31-1-36.27 4.67h139.14s-2.81-6.95-24.62-4.64" style="fill:none;stroke:#263238;stroke-linecap:round;stroke-linejoin:round"/><g style="clip-path:url(#c)"><path d="M71 160.4s6.44-7.4 15.85-7.4a7.88 7.88 0 0 1 6.73-7c6.43-1.24 7.68 4.49 7.68 4.49a14.07 14.07 0 0 1 11.12 0c6.37 2.52 5.08 9.87 5.08 9.87s18.39-.6 21.54 2.77H56.36S58 159 71 160.4" style="fill:none;stroke:#263238;stroke-linecap:round;stroke-linejoin:round;opacity:.5"/></g><path d="M71 160.4s6.44-7.4 15.85-7.4a7.88 7.88 0 0 1 6.73-7c6.43-1.24 7.68 4.49 7.68 4.49a14.07 14.07 0 0 1 11.12 0c6.37 2.52 5.08 9.87 5.08 9.87s18.39-.6 21.54 2.77H56.36S58 159 71 160.4" style="fill:none;stroke:#263238;stroke-linecap:round;stroke-linejoin:round"/><path d="M29.53 441.07s8.7-17 28.48-13.85a10.46 10.46 0 0 1 11.47-6.33s-5.14-14.24 8.31-24.89 31.7-1.59 31.7-1.59-1.15-8 6.32-10.9l115.11 3.82s12.63 3.52 15.4 15.39c0 0 11.08-6.33 24.92 0s13.85 22.16 13.85 22.16 15.71-1.59 17 19.89c0 0 9.94-12.55 24.53 0" style="fill:#fff;stroke:#263238;stroke-linecap:round;stroke-linejoin:round"/><path d="M65.53 447.79a20 20 0 0 0-.79 2M112.17 408.48c-3.32 1.32-6.61 3.95-9.06 8.85 0 0-6.65-2.87-10.29 2.37s2.38 10.68 2.38 10.68-8.31 1.59-8.71 9.1c0 0-8.49-2.42-15.21 1.69M119.63 407.33a19.5 19.5 0 0 0-4 .2M196.18 392.28l-2.69-8.8h-39.74l-6.83 15.26s-17.3-5.15-20.87 9.89a13 13 0 0 0-1.6-.52M246.57 415.06c-5.31 3.23-6.57 9.39-6.57 9.39-4.74-7.91-12.67-3.16-12.67-3.16s-1.19-13.85-10.29-19a24.76 24.76 0 0 0-18.43-2.07l-1.61-5.17M280 441.19c-2.9-2.67-7.19-2.5-7.19-2.5s5.15-19.38-12.26-24.53c-5.2-1.53-9.13-1.23-12.09-.05M282.62 447.79a11 11 0 0 0-.43-3.05" style="fill:none;stroke:#263238;stroke-linecap:round;stroke-linejoin:round"/><path d="M233.6 387.3h-40.11l10-18.7h20.11zM149.6 387.3h-40.11l10-18.7h20.11z" style="fill:#757575;stroke:#263238;stroke-linecap:round;stroke-linejoin:round"/><path d="M198.6 387.3h-54.11l10-18.7h34.11z" style="fill:#999;stroke:#263238;stroke-linecap:round;stroke-linejoin:round"/><path d="M230.92 369.94h-34.74v-183a114 114 0 0 1 17.37-60.5 114 114 0 0 1 17.37 60.5Z" style="fill:#fff44f"/><g style="clip-path:url(#d)"><path d="M230.8 182c.07 1.62.12 3.25.12 4.88v183.06h-34.74v-183c0-1.63 0-3.26.11-4.88Z" style="fill:#fff;opacity:.30000000000000004"/><path d="M207.43 188.2v181.74h-11.25v-183a114 114 0 0 1 7-39.47 200 200 0 0 1 4.25 40.73M230.92 186.89v183.05h-4.67V188.88a160.1 160.1 0 0 0-12.7-62.49 114 114 0 0 1 17.37 60.5" style="opacity:.2"/></g><path d="M230.92 369.94h-34.74v-183a114 114 0 0 1 17.37-60.5h0a114 114 0 0 1 17.37 60.5Z" style="fill:none;stroke:#263238;stroke-linecap:round;stroke-linejoin:round"/><path d="M146.92 369.94h-34.74v-183a114 114 0 0 1 17.37-60.5 114 114 0 0 1 17.37 60.5Z" style="fill:#fff44f"/><g style="clip-path:url(#e)"><path d="M146.78 181.62c.08 1.75.14 3.51.14 5.27v183.05h-34.74v-183c0-1.76.06-3.52.14-5.27Z" style="fill:#fff;opacity:.30000000000000004"/><path d="M142.49 155.41a113.9 113.9 0 0 1 4.43 31.48v183.05h-11.26V188.2a200 200 0 0 1 1.46-24.11q1-8.39 2.75-16.67c.97 2.63 1.85 5.29 2.62 7.99M129.55 126.39a159.9 159.9 0 0 0-12.71 62.49v181.06h-4.66v-183a114 114 0 0 1 17.37-60.55" style="opacity:.2"/></g><path d="M146.92 369.94h-34.74v-183a114 114 0 0 1 17.37-60.5h0a114 114 0 0 1 17.37 60.5ZM230.8 181.88h-34.22" style="fill:none;stroke:#263238;stroke-linecap:round;stroke-linejoin:round"/><path d="M196.18 218.01h34.74v2.6h-34.74z" style="fill:none;stroke:#263238;stroke-linecap:round;stroke-linejoin:round" transform="rotate(180 213.545 219.31)"/><path d="M196.18 287.9h34.62v6.59h-34.62z" style="fill:none;stroke:#263238;stroke-linecap:round;stroke-linejoin:round" transform="rotate(180 213.49 291.2)"/><path d="M112.29 181.88h34.23M112.18 218.01h34.74v2.6h-34.74zM112.29 287.9h34.62v6.59h-34.62z" style="fill:none;stroke:#263238;stroke-linecap:round;stroke-linejoin:round"/><path d="M196.58 369.94h-50.06V106.15a164.33 164.33 0 0 1 25-87.19 164.4 164.4 0 0 1 25 87.18Z" style="fill:#fff44f"/><g style="clip-path:url(#f)"><path d="M196.11 93.79H147A164.2 164.2 0 0 1 171.55 19a164.2 164.2 0 0 1 24.56 74.83Z" style="fill-opacity:.7000000000000001;opacity:.2"/><g style="opacity:.2"><path d="M180.64 369.94h-18.19V114.33c0-29.88 3.15-59.16 9.1-84.49 5.94 25.33 9.09 54.61 9.09 84.48Z" style="fill:#fff"/></g><path d="M196.06 327.47v42.47h-49.14v-42.35a36 36 0 0 0 4.82-5.83v-58.33c0-20.18 8-31.33 19.81-31.33s19.81 11.15 19.81 31.33v58.33a35 35 0 0 0 4.7 5.71" style="opacity:.2"/></g><path d="M196.58 369.94h-50.06V106.15a164.33 164.33 0 0 1 25-87.19h0a164.4 164.4 0 0 1 25 87.18Z" style="fill:none;stroke:#263238;stroke-linecap:round;stroke-linejoin:round"/><path d="M146.52 137.31h50.06v6.73h-50.06zM146.52 195.86h50.06v24.75h-50.06zM146.52 313.15h50.06v19.98h-50.06z" style="fill:none;stroke:#263238;stroke-linecap:round;stroke-linejoin:round"/><path d="M189.37 324.33v-27.24h-5.54v66.57h27.43v-12.43a10 10 0 0 0-4.11-8.08l-13.05-9.52a11.52 11.52 0 0 1-4.73-9.3M153.72 324.33v-27.24h5.54v66.57h-27.43v-12.43a10 10 0 0 1 4.11-8.08l13.06-9.52a11.51 11.51 0 0 0 4.72-9.3" style="fill:#fff44f;stroke:#263238;stroke-linecap:round;stroke-linejoin:round"/><path d="M131.83 357.86h79.43" style="fill:none;stroke:#263238;stroke-linecap:round;stroke-linejoin:round"/><path d="M180.31 369.94h-17.52l-3-8.7h23.52z" style="fill:#fff44f;stroke:#263238;stroke-linecap:round;stroke-linejoin:round"/><path d="M189.45 263.55v100.11h-35.6V263.55a44.8 44.8 0 0 1 9.33-27.3 10.72 10.72 0 0 1 16.94 0 44.5 44.5 0 0 1 4.54 7.21 43 43 0 0 1 2.39 5.66 44.6 44.6 0 0 1 2.4 14.43" style="fill:#fff"/><g style="clip-path:url(#g)"><path d="M189.35 263.55v100.11h-8.8v-97.5a81.7 81.7 0 0 0-1.2-14.06q-.49-2.83-1.2-5.51a57 57 0 0 0-2.27-7c-1.07-2.7-2.65-4-4.23-4s-3.17 1.35-4.24 4a61 61 0 0 0-2.27 7 78.5 78.5 0 0 0-2.39 19.57v97.5h-9V263.55a44.8 44.8 0 0 1 9.33-27.3 10.72 10.72 0 0 1 16.94 0 44.5 44.5 0 0 1 4.54 7.21 43 43 0 0 1 2.39 5.66 44.6 44.6 0 0 1 2.4 14.43" style="fill:#fff44f;opacity:.30000000000000004"/></g><path d="M189.45 263.55v100.11h-35.6V263.55a44.8 44.8 0 0 1 9.33-27.3 10.72 10.72 0 0 1 16.94 0 44.5 44.5 0 0 1 4.54 7.21 43 43 0 0 1 2.39 5.66 44.6 44.6 0 0 1 2.4 14.43" style="fill:none;stroke:#263238;stroke-linecap:round;stroke-linejoin:round"/><path d="M179 262.39c-2.91-8.86-12.06-8.86-15 0l-3.28-2c4.18-12.73 17.33-12.73 21.52 0Z" style="fill:#fff"/><path d="M179 262.39c-2.91-8.86-12.06-8.86-15 0l-3.28-2c4.18-12.73 17.33-12.73 21.52 0Z" style="fill:#bfbfbf;stroke:#263238;stroke-miterlimit:10"/><path d="M184.56 243.46h-26a44.5 44.5 0 0 1 4.54-7.21 10.72 10.72 0 0 1 16.94 0 44.5 44.5 0 0 1 4.52 7.21" style="fill:#fff44f;stroke:#263238;stroke-linecap:round;stroke-linejoin:round"/><path d="M318.49 371.2c.4 16-7.51 14.69-7.51 14.69a32.6 32.6 0 0 0-3-5.25c-4.14-6.37-10.48-15.3-8.1-20.59a78 78 0 0 1 5.29-9.12c4.24-6.5 9.11-13.07 9.11-13.07l-21.12-3.5s-15 6.22-26.91 6.94h-.92c-10.84.21-9.09-8.29-9.09-11 0-1.17 2.93-3.31 6.36-5.42 4.89-3 10.82-5.95 10.82-5.95l-3.21-6.65a19.3 19.3 0 0 1-5.61.3c-8.22-.9-7.09-9-5.76-12.52.38-1 2.27-2.54 4.94-4.3 8.45-5.57 24.63-13.33 24.63-13.33h23.73l23.35 63.74s-17.39 9.05-17 25.03" style="fill:#fff"/><path d="M318.49 371.2c.4 16-7.51 14.69-7.51 14.69a32.6 32.6 0 0 0-3-5.25c-4.14-6.37-10.48-15.3-8.1-20.59a78 78 0 0 1 5.29-9.12c4.24-6.5 9.11-13.07 9.11-13.07l-21.12-3.5s-15 6.22-26.91 6.94h-.92c-10.84.21-9.09-8.29-9.09-11 0-1.17 2.93-3.31 6.36-5.42 4.89-3 10.82-5.95 10.82-5.95l-3.21-6.65a19.3 19.3 0 0 1-5.61.3c-8.22-.9-7.09-9-5.76-12.52.38-1 2.27-2.54 4.94-4.3 8.45-5.57 24.63-13.33 24.63-13.33h23.73l23.35 63.74s-17.39 9.05-17 25.03" style="fill:#fff44f;opacity:.4"/><path d="M318.49 371.2c.4 16-7.51 14.69-7.51 14.69a32.6 32.6 0 0 0-3-5.25 23 23 0 0 0 .43-4.65c-.1-5.47-4.59-15.94-4.59-15.94l4.59-7.26a9.4 9.4 0 0 0-3.24-1.86c4.24-6.5 9.11-13.07 9.11-13.07l-21.12-3.5s-15 6.22-26.91 6.94h-.92c.69-5.95-1.66-13.45-2.73-16.45 4.89-3 10.82-5.95 10.82-5.95l-3.21-6.65a19.3 19.3 0 0 1-5.61.3c1.08-5.19.05-12.39-.82-16.82 8.45-5.57 24.63-13.33 24.63-13.33h23.73l23.35 63.74s-17.39 9.08-17 25.06" style="fill:#fff44f;opacity:.4"/><path d="M312.16 282.43h-23.73s-28 13.43-29.57 17.63-2.87 14.78 11.37 12.22l3.21 6.65s-17.18 8.54-17.18 11.37-1.85 11.71 10 11 26.91-6.94 26.91-6.94l21.12 3.5S303.07 353 299.9 360.05s9.1 20.52 11.1 25.84c0 0 7.91 1.29 7.51-14.69s17-25 17-25" style="fill:none;stroke:#263238;stroke-linecap:round;stroke-linejoin:round"/><path d="M306.54 357.2s5.95-3.33 9.19 2.85" style="fill:none;stroke:#263238;stroke-linecap:round;stroke-linejoin:round"/><path d="M314.59 185.61h2.27a1.21 1.21 0 0 1 1.21 1.21v48.7h-4.69v-48.7a1.21 1.21 0 0 1 1.21-1.21" style="fill:#263238"/><path d="M314.26 133.2h2.92v54.81h-2.92z" style="fill:#263238"/><path d="M313.82 127.77h3.8v7.43h-3.8z" style="fill:#757575;stroke:#263238;stroke-linecap:round;stroke-linejoin:round"/><path d="M314.76 222.76v.99M316.69 187.09h-1.93v33.29M315.53 168.49v1.85M315.53 136.85v27.82" style="fill:none;stroke:#fff;stroke-linecap:round;stroke-linejoin:round;opacity:.30000000000000004"/><rect width="92.97" height="108.36" x="269.24" y="232.82" rx="5.44" style="fill:#757575"/><g style="clip-path:url(#h)"><path d="M272.6 321.74v-82.36a3.85 3.85 0 0 1 3.85-3.86h75.49a.92.92 0 0 0 .81-.47.92.92 0 0 0-.81-1.36H275a4.44 4.44 0 0 0-4.44 4.44V322a.91.91 0 0 0 1.63.57l.18-.24a.9.9 0 0 0 .23-.59" style="fill:#fff;opacity:.2"/><path d="M362.21 238.26v97.48a5.44 5.44 0 0 1-5.44 5.44h-82.09a5.43 5.43 0 0 1-3.49-1.27 19.1 19.1 0 0 1 4.55-2.49h79.1a4 4 0 0 0 4-4v-93.17a14.6 14.6 0 0 1 3-3.94 5.3 5.3 0 0 1 .37 1.95" style="fill-opacity:.7000000000000001;opacity:.4"/><path d="M362.21 313.55v22.19a5.44 5.44 0 0 1-5.44 5.44h-49.18l-.57-3.74c.4-1.55 0-8.39 0-8.39-3.16-8.43 0-21.08 0-21.08l19.85-12.28s13.38 7.31 15.95 10 4.55 19.65 4.55 19.65c2.65-.63 7.27-4.52 11.48-8.53 1.15-1.08 2.31-2.2 3.36-3.26" style="fill-opacity:.7000000000000001;opacity:.2"/></g><rect width="92.97" height="108.36" x="269.24" y="232.82" rx="5.44" style="fill:none;stroke:#263238;stroke-linecap:round;stroke-linejoin:round"/><path d="M358.85 320.57v2.97M303.84 236.52h51.28a3.73 3.73 0 0 1 3.73 3.73v76.37M272.6 253.68v-13.43a3.73 3.73 0 0 1 3.73-3.73h16.44M272.6 262.78v-2.57M289 337.48h-12.67a3.73 3.73 0 0 1-3.73-3.73v-66M358.85 333.75a3.73 3.73 0 0 1-3.73 3.73h-62.35" style="fill:none;stroke:#263238;stroke-linecap:round;stroke-linejoin:round"/><circle cx="315.73" cy="295.69" r="18.81" style="fill:#fff44f"/><g style="clip-path:url(#i)"><path d="M334.54 295.69a18.81 18.81 0 0 1-31.63 13.77 9.8 9.8 0 0 1 2.71-3.24s10.89 9.32 20.84-.64c7.45-7.46 1-18.58 1-18.58s1-1.08 4-1.57a18.76 18.76 0 0 1 3.08 10.26M304.7 299.93a.91.91 0 0 1-1.15-.39 2.46 2.46 0 0 1-.39-1.13c-1.28-8 2.95-15.56 11.48-16.27 1.59-.14 5.67 0 5.09 2.6a3.54 3.54 0 0 1-1.52 2 86 86 0 0 0-7.28 5.17 16 16 0 0 0-3 3.37c-.43.64-1.87 4.09-3.23 4.65" style="fill-opacity:.7000000000000001;opacity:.2"/></g><circle cx="315.73" cy="295.69" r="18.81" style="fill:none;stroke:#263238;stroke-linecap:round;stroke-linejoin:round"/><path d="M301.12 295.69a14.6 14.6 0 0 1 14.61-14.6M311.91 309.78a14.6 14.6 0 0 1-10.49-11.15M325.07 284.47a14.6 14.6 0 0 1-9.34 25.82M318.67 281.38a14.3 14.3 0 0 1 3.49 1.2" style="fill:none;stroke:#263238;stroke-linecap:round;stroke-linejoin:round"/><path d="M302.31 253.22c1.94 0 2.94 1.16 2.94 3.18v.4h-1.88v-.52c0-.91-.37-1.25-1-1.25s-1 .34-1 1.25.4 1.61 1.71 2.75c1.66 1.47 2.19 2.52 2.19 4 0 2-1 3.18-3 3.18s-3-1.16-3-3.18v-.78h1.88v.9c0 .91.4 1.23 1 1.23s1-.32 1-1.23-.39-1.61-1.7-2.75c-1.66-1.47-2.19-2.52-2.19-4 .12-2.02 1.12-3.18 3.05-3.18M305.83 253.36H312v1.81h-2.1V266h-2v-10.83h-2.08ZM318.61 266h-2l-.34-2.3h-2.45l-.34 2.3h-1.83l2-12.68h2.91Zm-4.54-4H316l-.94-6.41ZM323.7 266a3.9 3.9 0 0 1-.18-1.56v-2c0-1.18-.4-1.61-1.3-1.61h-.69V266h-2v-12.64h3c2.07 0 3 1 3 2.92v1a2.51 2.51 0 0 1-1.31 2.56c1 .42 1.32 1.36 1.32 2.68v2a3.7 3.7 0 0 0 .22 1.54Zm-2.17-10.87v3.9h.78c.74 0 1.19-.33 1.19-1.34v-1.25c0-.91-.3-1.31-1-1.31ZM326.24 253.36h6.16v1.81h-2.09V266h-2v-10.83h-2.08Z" style="fill:#fff"/><path d="M373.48 262.67s-7.91 2.45-10.68 9.32" style="fill:none;stroke:#263238;stroke-linecap:round;stroke-linejoin:round"/><path d="M409.34 480.63c-.89-15.29-1.47-30.91-2.23-43.48-1.58-26.07-2.77-43.56-5.14-61.36s-2-44.69-3.17-54.08-4.72-11.38-7.51-22.54-5.31-33.38-9.89-36.5-18.6-9-18.6-9v62.94c-8.31 12.77-18.2 15.93-18.2 15.93-6.33-18.32-5.53-25.59-11.86-32.32s-10.89-15.52-20.83-11.84c-4.73 1.75-7.26 3.53-4.89 19.58s7.12 21.08 7.12 21.08c.79 5.48-.39 21.42-2.37 29.58s5.54 29.82 9.1 43.67 22.55 41.9 22.55 41.9a243 243 0 0 1-.79 31.68c-.15 1.49-.33 3.08-.54 4.75 0 0 8.73 13.45 18.07 13.45 35.08.01 49.18-13.44 49.18-13.44" style="fill:#fff"/><path d="M308.43 293.11a3.84 3.84 0 0 0 0-2.85 10 10 0 0 1 3.48-1.87c9.94-3.68 14.5 5.12 20.83 11.84a20 20 0 0 1 1.59 1.91c-5.73-2.16-13.24-2.12-16.26 2.07-3.8 5.25-11.54-4.21-9.64-11.1M351.36 465.19l3.13 11.73s-4.41-4.32-11-14.8c.32-10.23-.07-17.92-.07-17.92s-19-28.06-22.55-41.9-11.08-35.52-9.1-43.67 3.16-24.1 2.37-29.58a16.6 16.6 0 0 1-2.3-3.75 6.44 6.44 0 0 1 3-1.76 65.45 65.45 0 0 1 3.85 27.86c-1.23 15.82 1.48 17.14 6.72 37.71s13.94 43.86 18 48 5.87 23.04 7.95 28.08M358.85 326.6s6.24 1 8.75 2.45c0 0-12.18 3.18-13 6.57s-3.4 6.91-8 2.77c0 0-.24-2.59-.72-6.35 2.94-1.31 10.41-5.42 16.92-15.42v-62.94s6.92 2.9 12.63 5.7c-4.23.56-8.56 1.86-10.25 4.72a12.77 12.77 0 0 0 7.12 7.9c4.5 2 0 36 0 36s7.38 1.82 9.75 8.65c0 0-12.13 1.24-17.14 5.09s-6.06 4.86-6.06 4.86M407.11 437.15c.62 10.18 1.11 22.36 1.74 34.75-1.56-23.55-6.29-64-6.29-64s-4.23 14.95-4.55 13.36c-.94-4.68 2-31.13 1.72-40.55-.12-4.27.19-15.22.57-25.9.34 7.34.83 14.7 1.67 21 2.37 17.78 3.56 35.27 5.14 61.34" style="fill:#fff44f;opacity:.4"/><path d="M409.34 480.63c-.89-15.29-1.47-30.91-2.23-43.48-1.58-26.07-2.77-43.56-5.14-61.36s-2-44.69-3.17-54.08-4.72-11.38-7.51-22.54-5.31-33.38-9.89-36.5-18.6-9-18.6-9v62.94c-8.31 12.77-18.2 15.93-18.2 15.93-6.33-18.32-5.53-25.59-11.86-32.32s-10.89-15.52-20.83-11.84c-4.73 1.75-7.26 3.53-4.89 19.58s7.12 21.08 7.12 21.08c.79 5.48-.39 21.42-2.37 29.58s5.54 29.82 9.1 43.67 22.55 41.9 22.55 41.9a243 243 0 0 1-.79 31.68c-.15 1.49-.33 3.08-.54 4.75" style="fill:none;stroke:#263238;stroke-linecap:round;stroke-linejoin:round"/><path d="M344.6 332.55s2 8.82 5.94 10.8 9.65 0 9.65 0M362.8 316.62s4-8.8 16.62-1.17M362.8 281.09s.79-4.67 7.32-5.85M343.42 444.2c7.51 9.53 6.08 18.62 9 23.37s2.49 21.76 2.49 21.76M398 352.79v33.1a164 164 0 0 1-2.77 28.27M314.14 329.05s0-5.65 1.59-7.34M318.49 311.28s3.51-11.8 13.79-6.65M350.19 329.63c7.64.17 15.38-3.22 19.93.9" style="fill:none;stroke:#263238;stroke-linecap:round;stroke-linejoin:round"/></svg>