<svg xmlns="http://www.w3.org/2000/svg" width="512" height="512" viewBox="0 0 135.467 135.467"><g style="display:inline"><path d="M103.856 108.375c-2.387.715-2.036.732-4.357.732-2.13 0-4.753-.06-6.484-1.359-3.146-2.36-5.242-7.775-2.169-10.86.38-.38 1.953-1.468 2.781-1.656 1.235-.28 1.386-.392 2.59-.565 1.492-.215 3.449-.62 4.977-.308 8.35 1.703 18.584 6.15 22.949 13.93.908 1.618 1.351 2.775 1.538 4.487.238 2.176-.293 3.53-.779 5.733-.603 1.216-2.164 3.122-2.164 3.122-5.575 5.871-13.768 11.394-21.578 11.962-12.868.935-38.677-1.04-49.579-8.44-4.79-3.251-8.546-7.311-12.289-11.675-5.048-5.884-10.755-11.172-14.283-18.178-1.558-3.093-1.924-5.483-3.213-9.06-2.402-6.663-4.52-13.26-6.345-20.086-.912-3.412-2.427-6.666-3.086-10.135-.507-2.67-.379-4.55-.379-7.25 0-2.536-.212-5.08 0-7.606.071-.85.219-1.804.402-2.637.226-1.032.39-1.837.595-2.873 1.542-7.762 4.076-14.64 9.79-20.522 3.674-3.782 10.812-7.725 15.397-9.711 8.717-3.777 16.906-3.317 27.192-.588 2.353.625 12.33 5.308 14.503 6.406 4.383 2.214 7.566 5.085 10.962 8.626 3.79 3.953 7.93 16.753 5.746 22.67-.569 1.544-1.272 3.414-2 4.896-3.709 7.54-8.525 14.533-14.217 20.757-5.186 5.671-12.965 10.19-15.73 17.703-.357.967-.354.834-.624 1.828a38 38 0 0 0-.519 2.435c-3.298 14.372 4.558 26.103 19.329 28.213 3.177.454 6.435.296 9.622.637 1.066.114 5.47.735 8.971.334 1.998-.229 4.655-1.81 5.626-2.806.622-.638 2.023-1.953 2.789-3.582 2.194-4.672 3.15-6.945.577-9.651-1.438-1.512-10.158-5.078-11.038-2.292-1.028 3.257 2.287 4.39 3.645 5.706.447.434.34.463.852 1.663z" style="fill:#fff0f5;stroke:#000;stroke-width:.79375;stroke-linecap:butt;stroke-linejoin:miter;stroke-opacity:1;stroke-dasharray:none"/><circle cx="37.207" cy="42.353" r="7.083" style="fill:pink;stroke-width:.334753"/><ellipse cx="65.404" cy="47.529" rx=".43" ry=".257" style="fill:pink;stroke-width:.334753"/></g><circle cx="38.479" cy="32.035" r="5.262" style="fill:#000;stroke-width:.334753"/><circle cx="67.234" cy="35.947" r="5.262" style="fill:#000;stroke-width:.334753"/><circle cx="69.397" cy="35.007" r=".689" style="fill:#fffaf0;stroke-width:.334753"/><circle cx="40.713" cy="31.329" r=".689" style="fill:#fffaf0;stroke-width:.334753"/><circle cx="66.19" cy="46.43" r="7.611" style="fill:#fff0f5;stroke-width:.334753"/><circle cx="36.989" cy="42.169" r="7.611" style="fill:#fff0f5;stroke-width:.334753"/><circle cx="74.04" cy="46.164" r="4.921" style="display:inline;fill:pink;stroke-width:.334753"/><circle cx="28.602" cy="40.539" r="4.921" style="display:inline;fill:pink;stroke-width:.334753"/><path d="M27.153 37.496c-.052.137-.436.423-.436.53" style="fill:none;stroke:#000;stroke-width:.334753px;stroke-linecap:butt;stroke-linejoin:miter;stroke-opacity:1"/><path d="M29.023 37.836q-.232.293-.483.57c-.108.12-.074.042-.104.128" style="fill:red;stroke:#000;stroke-width:.335282;stroke-linecap:butt;stroke-linejoin:miter;stroke-miterlimit:4;stroke-dasharray:none;stroke-opacity:1"/><path d="M30.684 38.43c-.08.253-.354.364-.468.593M71.58 43.375c-.061.136-.397.583-.397.714M73.491 43.037c-.01.22-.19.364-.27.552-.047.11.039.04-.078.156M75.137 42.765c-.098.235-.234.45-.347.676-.023.045-.048.126-.07.146" style="fill:none;stroke:#000;stroke-width:.334753px;stroke-linecap:butt;stroke-linejoin:miter;stroke-opacity:1"/></svg>