<svg xmlns="http://www.w3.org/2000/svg" width="512" height="512" viewBox="0 0 135.467 135.467"><g style="display:inline"><path d="M101.456 103.088c-2.148.643-1.833.659-3.922.659-1.916 0-4.277-.054-5.835-1.223-2.831-2.123-4.718-6.998-1.952-9.773.341-.343 1.758-1.322 2.503-1.49 1.111-.253 1.248-.354 2.33-.51 1.344-.193 3.104-.557 4.48-.277 7.515 1.533 16.724 5.534 20.653 12.536.817 1.456 1.216 2.498 1.384 4.039.214 1.958-.264 3.177-.701 5.16-.543 1.093-1.948 2.809-1.948 2.809-5.017 5.284-12.39 10.254-19.418 10.765-11.58.841-34.808-.936-44.62-7.595-4.31-2.927-7.69-6.58-11.059-10.507-4.543-5.296-9.679-10.055-12.854-16.36-1.402-2.783-1.731-4.934-2.892-8.153-2.161-5.997-4.067-11.933-5.71-18.077-.82-3.07-2.184-5.999-2.777-9.12-.456-2.404-.341-4.095-.341-6.526 0-2.282-.191-4.571 0-6.845.064-.765.197-1.623.361-2.373.204-.929.351-1.653.536-2.585 1.388-6.986 3.668-13.175 8.81-18.47 3.307-3.403 9.731-6.952 13.857-8.739 7.845-3.399 15.215-2.984 24.472-.528 2.117.562 11.096 4.776 13.051 5.764 3.945 1.993 6.81 4.576 9.866 7.763C93.14 26.99 96.866 38.51 94.9 43.835c-.512 1.389-1.144 3.072-1.8 4.405-3.338 6.785-7.672 13.08-12.794 18.68-4.667 5.104-11.668 9.17-14.157 15.932-.32.87-.318.75-.561 1.645-.11.401-.408 1.787-.467 2.192-2.968 12.934 4.101 23.492 17.395 25.39 2.86.41 5.791.267 8.66.573.958.103 4.921.663 8.073.301 1.798-.206 4.19-1.629 5.063-2.525.56-.574 1.82-1.757 2.51-3.224 1.975-4.204 2.834-6.25.519-8.685-1.294-1.361-9.142-4.57-9.933-2.063-.926 2.931 2.057 3.951 3.28 5.135.402.39.306.417.767 1.497z" style="fill:#fff0f5;stroke:#000;stroke-width:.301262px;stroke-linecap:butt;stroke-linejoin:miter;stroke-opacity:1"/><circle cx="41.474" cy="43.671" r="6.374" style="fill:pink;stroke-width:.301262"/><ellipse cx="66.85" cy="48.33" rx=".387" ry=".231" style="fill:pink;stroke-width:.301262"/></g><circle cx="42.62" cy="34.386" r="4.735" style="fill:#000;stroke-width:.301262"/><circle cx="68.498" cy="37.906" r="4.735" style="fill:#000;stroke-width:.301262"/><circle cx="70.444" cy="37.061" r=".62" style="fill:#fffaf0;stroke-width:.301262"/><circle cx="44.63" cy="33.75" r=".62" style="fill:#fffaf0;stroke-width:.301262"/><circle cx="67.558" cy="47.34" r="6.849" style="fill:#fff0f5;stroke-width:.301262"/><circle cx="41.278" cy="43.506" r="6.849" style="fill:#fff0f5;stroke-width:.301262"/><circle cx="74.622" cy="47.101" r="4.429" style="display:inline;fill:pink;stroke-width:.301262"/><circle cx="33.731" cy="42.039" r="4.429" style="display:inline;fill:pink;stroke-width:.301262"/><path d="M32.426 39.3c-.046.123-.391.381-.391.478" style="fill:none;stroke:#000;stroke-width:.301262px;stroke-linecap:butt;stroke-linejoin:miter;stroke-opacity:1"/><path d="M34.11 39.606q-.21.264-.435.514c-.097.108-.067.037-.093.114" style="fill:red;stroke:#000;stroke-width:.301737;stroke-linecap:butt;stroke-linejoin:miter;stroke-miterlimit:4;stroke-dasharray:none;stroke-opacity:1"/><path d="M35.605 40.142c-.074.226-.32.327-.422.533M72.409 44.591c-.056.122-.358.525-.358.642M74.129 44.287c-.01.199-.17.327-.243.497-.043.098.034.035-.07.14M75.61 44.042c-.088.211-.21.405-.312.609-.02.04-.043.113-.064.13" style="fill:none;stroke:#000;stroke-width:.301262px;stroke-linecap:butt;stroke-linejoin:miter;stroke-opacity:1"/></svg>
